<svg width="1920" height="1080" viewBox="0 0 1920 1080" fill="none" xmlns="http://www.w3.org/2000/svg">
<g clip-path="url(#clip0_73_39)">
<rect width="1920" height="1080" fill="#272727"/>
<line y1="-2.5" x2="3.64222" y2="-2.5" transform="matrix(0.965926 0.258819 -0.269188 0.963088 39.086 715.332)" stroke="#313131" stroke-width="5"/>
<line y1="-2.5" x2="3.64222" y2="-2.5" transform="matrix(0.965926 0.258819 -0.269188 0.963088 39.086 715.332)" stroke="#313131" stroke-width="5"/>
<path d="M217.41 58.0312L216.973 57.9141C216.247 57.7606 215.547 57.671 214.86 57.6951C213.058 57.7435 211.527 58.371 210.076 60.2905L200.269 73.8419L212.398 82.2969L222.891 69.2032C224.342 67.2837 224.512 65.6989 224.011 64.0695C223.525 62.3867 222.227 60.7151 220.467 59.4959C219.536 58.8379 218.478 58.3377 217.411 58.0274L217.41 58.0312ZM196.13 79.5965L104.703 205.939L110.394 209.874L207.972 87.8481L196.13 79.5965ZM270.361 104.226C268.632 103.844 266.953 104.069 264.988 105.524L251.719 116.104L261.236 127.153L275.019 117.2C276.979 115.764 277.557 114.244 277.528 112.602C277.491 110.835 276.717 108.952 275.315 107.351C274.118 105.939 272.566 104.895 271.036 104.407L270.361 104.226V104.226ZM246.095 120.562L122.422 219.103L126.875 224.259L255.376 131.384L246.095 120.562Z" fill="#2D2C2C"/>
<path d="M168.771 870.15L168.334 870.032C167.608 869.879 166.908 869.789 166.22 869.814C164.419 869.862 162.888 870.489 161.437 872.409L151.63 885.96L163.759 894.415L174.252 881.322C175.703 879.402 175.872 877.817 175.372 876.188C174.886 874.505 173.588 872.834 171.828 871.614C170.897 870.956 169.838 870.456 168.772 870.146L168.771 870.15ZM147.491 891.715L56.0636 1018.06L61.7549 1021.99L159.333 899.967L147.491 891.715ZM221.722 916.344C219.993 915.963 218.314 916.187 216.349 917.642L203.08 928.223L212.597 939.271L226.379 929.318C228.34 927.882 228.918 926.362 228.889 924.72C228.851 922.953 228.078 921.071 226.676 919.469C225.479 918.058 223.927 917.013 222.397 916.525L221.722 916.344V916.344ZM197.456 932.681L73.783 1031.22L78.2359 1036.38L206.736 943.502L197.456 932.681Z" fill="#2D2C2C"/>
<path d="M730.771 794.15L730.334 794.032C729.608 793.879 728.908 793.789 728.22 793.814C726.419 793.862 724.888 794.489 723.437 796.409L713.63 809.96L725.759 818.415L736.252 805.322C737.703 803.402 737.872 801.817 737.372 800.188C736.886 798.505 735.588 796.834 733.828 795.614C732.897 794.956 731.838 794.456 730.772 794.146L730.771 794.15ZM709.491 815.715L618.064 942.057L623.755 945.993L721.333 823.967L709.491 815.715ZM783.722 840.344C781.993 839.963 780.314 840.187 778.349 841.642L765.08 852.223L774.597 863.271L788.38 853.318C790.34 851.882 790.918 850.362 790.889 848.72C790.852 846.953 790.078 845.071 788.676 843.469C787.479 842.058 785.927 841.013 784.397 840.525L783.722 840.344V840.344ZM759.456 856.681L635.783 955.221L640.236 960.378L768.736 867.502L759.456 856.681Z" fill="#2D2C2C"/>
<path d="M1224.77 794.15L1224.33 794.032C1223.61 793.879 1222.91 793.789 1222.22 793.814C1220.42 793.862 1218.89 794.489 1217.44 796.409L1207.63 809.96L1219.76 818.415L1230.25 805.322C1231.7 803.402 1231.87 801.817 1231.37 800.188C1230.89 798.505 1229.59 796.834 1227.83 795.614C1226.9 794.956 1225.84 794.456 1224.77 794.146L1224.77 794.15ZM1203.49 815.715L1112.06 942.057L1117.75 945.993L1215.33 823.967L1203.49 815.715ZM1277.72 840.344C1275.99 839.963 1274.31 840.187 1272.35 841.642L1259.08 852.223L1268.6 863.271L1282.38 853.318C1284.34 851.882 1284.92 850.362 1284.89 848.72C1284.85 846.953 1284.08 845.071 1282.68 843.469C1281.48 842.058 1279.93 841.013 1278.4 840.525L1277.72 840.344V840.344ZM1253.46 856.681L1129.78 955.221L1134.24 960.378L1262.74 867.502L1253.46 856.681Z" fill="#2D2C2C"/>
<path d="M470.25 916.938C473.749 916.941 477.204 917.716 480.37 919.206C483.536 920.697 486.334 922.867 488.566 925.562C490.797 928.257 492.408 931.41 493.282 934.798C494.157 938.186 494.274 941.725 493.626 945.164C492.977 948.602 491.579 951.855 489.53 954.692C487.482 957.528 484.833 959.879 481.773 961.575C478.713 963.272 475.316 964.274 471.825 964.509C468.334 964.744 464.834 964.207 461.574 962.935L434.531 998.964L434.531 1020.13L446.437 1020.13C447.49 1020.13 448.5 1020.54 449.244 1021.29C449.988 1022.03 450.406 1023.04 450.406 1024.09C450.406 1025.15 449.988 1026.16 449.244 1026.9C448.5 1027.64 447.49 1028.06 446.437 1028.06L414.687 1028.06C413.635 1028.06 412.625 1027.64 411.881 1026.9C411.137 1026.16 410.719 1025.15 410.719 1024.09C410.719 1023.04 411.137 1022.03 411.881 1021.29C412.625 1020.54 413.635 1020.13 414.687 1020.13L426.594 1020.13L426.594 998.964L384.525 942.925C383.495 941.551 382.937 939.88 382.937 938.162L382.937 936.837C382.937 935.784 383.356 934.775 384.1 934.031C384.844 933.286 385.854 932.868 386.906 932.868L395.812 932.868L387.684 922.47C387.036 921.641 386.743 920.588 386.871 919.543C386.999 918.498 387.537 917.546 388.367 916.898C389.196 916.249 390.249 915.957 391.294 916.085C392.339 916.213 393.29 916.751 393.939 917.58L405.877 932.868L447.763 932.868C449.398 928.21 452.44 924.175 456.469 921.321C460.497 918.467 465.313 916.935 470.25 916.938ZM456.47 932.868L474.219 932.868C475.271 932.868 476.281 933.286 477.025 934.031C477.769 934.775 478.187 935.784 478.187 936.837L478.187 938.154C478.187 939.872 477.63 941.543 476.6 942.917L466.623 956.212C469.489 956.884 472.487 956.745 475.279 955.811C478.071 954.877 480.549 953.185 482.435 950.924C484.321 948.663 485.541 945.921 485.958 943.007C486.376 940.092 485.975 937.119 484.799 934.419C483.624 931.719 481.721 929.399 479.303 927.719C476.885 926.039 474.047 925.064 471.107 924.904C468.167 924.744 465.24 925.405 462.654 926.813C460.068 928.221 457.924 930.32 456.463 932.876L456.463 932.868L456.47 932.868ZM412.084 940.806L428.142 961.364C428.753 962.196 429.016 963.234 428.875 964.257C428.734 965.28 428.2 966.208 427.386 966.843C426.571 967.478 425.542 967.771 424.515 967.66C423.488 967.548 422.545 967.041 421.887 966.245L402.011 940.806L392.859 940.806L430.562 991.026L468.266 940.806L412.084 940.806Z" fill="#2D2C2C"/>
<path d="M1524.25 908.938C1527.75 908.941 1531.2 909.716 1534.37 911.206C1537.54 912.697 1540.33 914.867 1542.57 917.562C1544.8 920.257 1546.41 923.41 1547.28 926.798C1548.16 930.186 1548.27 933.725 1547.63 937.164C1546.98 940.602 1545.58 943.855 1543.53 946.692C1541.48 949.528 1538.83 951.879 1535.77 953.575C1532.71 955.272 1529.32 956.274 1525.83 956.509C1522.33 956.744 1518.83 956.207 1515.57 954.935L1488.53 990.964V1012.13H1500.44C1501.49 1012.13 1502.5 1012.54 1503.24 1013.29C1503.99 1014.03 1504.41 1015.04 1504.41 1016.09C1504.41 1017.15 1503.99 1018.16 1503.24 1018.9C1502.5 1019.64 1501.49 1020.06 1500.44 1020.06H1468.69C1467.63 1020.06 1466.63 1019.64 1465.88 1018.9C1465.14 1018.16 1464.72 1017.15 1464.72 1016.09C1464.72 1015.04 1465.14 1014.03 1465.88 1013.29C1466.63 1012.54 1467.63 1012.13 1468.69 1012.13H1480.59V990.964L1438.53 934.925C1437.49 933.551 1436.94 931.88 1436.94 930.162V928.837C1436.94 927.784 1437.36 926.775 1438.1 926.031C1438.84 925.286 1439.85 924.868 1440.91 924.868H1449.81L1441.68 914.47C1441.04 913.641 1440.74 912.588 1440.87 911.543C1441 910.498 1441.54 909.546 1442.37 908.898C1443.2 908.249 1444.25 907.957 1445.29 908.085C1446.34 908.213 1447.29 908.751 1447.94 909.58L1459.88 924.868H1501.76C1503.4 920.21 1506.44 916.175 1510.47 913.321C1514.5 910.467 1519.31 908.935 1524.25 908.938ZM1510.47 924.868H1528.22C1529.27 924.868 1530.28 925.286 1531.03 926.031C1531.77 926.775 1532.19 927.784 1532.19 928.837V930.154C1532.19 931.872 1531.63 933.543 1530.6 934.917L1520.62 948.212C1523.49 948.884 1526.49 948.745 1529.28 947.811C1532.07 946.877 1534.55 945.185 1536.44 942.924C1538.32 940.663 1539.54 937.921 1539.96 935.007C1540.38 932.092 1539.97 929.119 1538.8 926.419C1537.62 923.719 1535.72 921.399 1533.3 919.719C1530.88 918.039 1528.05 917.064 1525.11 916.904C1522.17 916.744 1519.24 917.405 1516.65 918.813C1514.07 920.221 1511.92 922.32 1510.46 924.876V924.868H1510.47ZM1466.08 932.806L1482.14 953.364C1482.75 954.196 1483.02 955.234 1482.88 956.257C1482.73 957.28 1482.2 958.208 1481.39 958.843C1480.57 959.478 1479.54 959.771 1478.51 959.66C1477.49 959.548 1476.55 959.041 1475.89 958.245L1456.01 932.806H1446.86L1484.56 983.026L1522.27 932.806H1466.08Z" fill="#2D2C2C"/>
<g clip-path="url(#clip1_73_39)">
<path d="M1585.87 723.836C1585.8 722.709 1586.55 721.734 1587.67 721.51C1593.3 720.458 1609.89 718.281 1618.67 722.936C1628.05 727.892 1642.23 723.836 1648.53 721.735C1650.04 721.21 1651.54 722.411 1651.31 723.988L1646.36 773.016C1646.28 774.141 1645.31 774.893 1644.26 774.893L1593.75 774.893C1592.63 774.893 1591.8 774.067 1591.65 773.016L1585.87 723.836Z" fill="#313131"/>
<path d="M1608.85 763.23C1608.53 763.23 1608.13 763.23 1607.89 763.152C1605.73 762.672 1604.45 760.515 1604.93 758.276L1630.33 654.065C1630.65 652.706 1631.61 651.667 1632.89 651.187L1658.29 642.717C1658.69 642.637 1659.17 642.557 1659.57 642.557C1661.25 642.557 1662.84 643.676 1663.32 645.354C1663.64 646.314 1663.64 647.432 1663.16 648.391C1662.68 649.35 1661.88 650.069 1660.93 650.389L1637.6 658.062L1612.68 760.195C1612.28 761.952 1610.6 763.23 1608.85 763.23Z" fill="#313131"/>
<path d="M1659.57 644.715C1660.29 644.715 1660.85 645.115 1661.09 645.834C1661.41 646.633 1660.93 647.591 1660.13 647.912L1635.61 656.143L1610.36 759.554C1610.21 760.274 1609.57 760.752 1608.77 760.752L1608.37 760.752C1607.49 760.592 1607.01 759.633 1607.17 758.755L1632.57 654.545C1632.65 654.066 1633.05 653.586 1633.69 653.345L1659.09 644.874C1659.17 644.874 1659.33 644.715 1659.57 644.715ZM1659.57 640C1658.85 640 1658.21 640.08 1657.49 640.32L1632.09 648.791C1630.02 649.51 1628.42 651.189 1627.94 653.345L1602.62 757.717C1601.82 761.154 1603.89 764.671 1607.33 765.469C1607.81 765.549 1608.29 765.63 1608.85 765.63C1611.8 765.63 1614.36 763.632 1615.08 760.756L1639.6 659.901L1661.65 652.468C1663.24 651.91 1664.6 650.79 1665.32 649.192C1666.12 647.593 1666.2 645.915 1665.64 644.317C1664.68 641.758 1662.37 640 1659.57 640Z" fill="#2D2C2C"/>
<path d="M1608.45 760.754L1608.85 760.754C1609.57 760.754 1610.2 760.274 1610.44 759.556L1619.63 721.675C1619.31 721.596 1619.07 721.355 1618.75 721.275C1618.03 720.956 1617.39 720.556 1616.67 720.397L1607.25 758.837C1607.09 759.635 1607.57 760.594 1608.45 760.754Z" fill="#313131"/>
<path d="M1592.15 776C1591.96 776 1591.75 775.938 1591.5 775.813C1590.86 775.554 1590.45 775.031 1590.41 774.458L1584.26 722.246C1584.25 722.144 1584.28 721.996 1584.32 721.825L1584.33 721.737L1584.33 721.609L1582.92 709.667L1582.44 709.633C1577.24 709.27 1573 704.742 1573 699.537C1573 694.046 1577.64 689.406 1583.13 689.406L1585.59 689.406L1585.69 688.948C1589.24 672.138 1602.81 660.396 1618.67 660.396C1634.39 660.396 1648.15 672.4 1651.41 688.94L1651.51 689.406L1652.78 689.406C1658.27 689.406 1662.91 694.046 1662.91 699.537C1662.91 704.345 1659.31 708.628 1654.55 709.498L1654.12 709.577L1647.81 772.363C1647.79 772.631 1647.73 772.912 1647.63 773.221L1647.49 774.439C1647.37 775.299 1646.68 775.917 1645.83 775.917L1644.7 775.917C1644.35 775.974 1644.09 775.997 1643.83 775.997L1592.15 775.997L1592.15 776ZM1602.3 725.652C1599.15 725.652 1596.06 725.907 1593.34 726.131L1591.75 726.261L1596.75 769.003L1641.32 769.003L1645.29 729.248L1644.51 729.421C1639.23 730.596 1634.64 731.165 1630.5 731.165C1624.59 731.165 1619.42 730.032 1615.11 727.795C1613.67 726.998 1610.09 725.652 1602.3 725.652ZM1602.3 718.817C1609.33 718.817 1614.67 719.787 1618.15 721.701C1621.57 723.449 1625.66 724.331 1630.33 724.331C1634.92 724.331 1640.08 723.537 1645.67 721.972L1646.05 721.865L1647.27 709.749L1589.83 709.749L1590.97 719.575L1591.55 719.506C1595.29 719.049 1598.91 718.817 1602.3 718.817ZM1583.29 696.162C1581.51 696.162 1580.07 697.604 1580.07 699.378C1580.07 701.182 1581.48 702.594 1583.29 702.594L1652.94 702.594C1654.68 702.594 1656.15 701.121 1656.15 699.378C1656.15 697.575 1654.74 696.162 1652.94 696.162L1652.14 696.162C1648.66 696.162 1645.61 693.666 1644.88 690.228C1642.1 676.904 1631.08 667.233 1618.67 667.233C1606.15 667.233 1595.16 676.908 1592.54 690.237C1591.89 693.672 1588.83 696.164 1585.28 696.164L1583.29 696.164L1583.29 696.162Z" fill="#2D2C2C"/>
<path d="M1627.3 739.257C1627.3 740.713 1628.48 741.894 1629.93 741.894C1631.39 741.894 1632.57 740.713 1632.57 739.257C1632.57 737.801 1631.39 736.62 1629.93 736.62C1628.48 736.618 1627.3 737.799 1627.3 739.257Z" fill="#2D2C2C"/>
<path d="M1632.57 750.685C1632.57 752.141 1633.75 753.322 1635.21 753.322C1636.66 753.322 1637.84 752.141 1637.84 750.685C1637.84 749.229 1636.66 748.046 1635.21 748.046C1633.75 748.046 1632.57 749.227 1632.57 750.685Z" fill="#2D2C2C"/>
<path d="M1601.34 750.765C1601.34 751.824 1602.19 752.683 1603.26 752.683C1604.31 752.683 1605.17 751.824 1605.17 750.765C1605.17 749.706 1604.32 748.846 1603.26 748.846C1602.2 748.846 1601.34 749.704 1601.34 750.765Z" fill="#2D2C2C"/>
<path d="M1601.98 739.257C1601.98 739.964 1602.55 740.535 1603.25 740.535C1603.96 740.535 1604.53 739.962 1604.53 739.257C1604.53 738.551 1603.96 737.979 1603.25 737.979C1602.55 737.977 1601.98 738.55 1601.98 739.257Z" fill="#2D2C2C"/>
<path d="M1628.66 760.594C1628.66 761.078 1629.05 761.474 1629.53 761.474C1630.02 761.474 1630.41 761.08 1630.41 760.594C1630.41 760.109 1630.02 759.715 1629.53 759.715C1629.05 759.715 1628.66 760.109 1628.66 760.594Z" fill="#2D2C2C"/>
</g>
<g clip-path="url(#clip2_73_39)">
<path d="M268.871 722.836C268.796 721.709 269.546 720.734 270.672 720.51C276.302 719.458 292.886 717.281 301.667 721.936C311.048 726.892 325.231 722.836 331.535 720.735C333.036 720.21 334.536 721.411 334.311 722.988L329.357 772.016C329.281 773.141 328.306 773.893 327.255 773.893L276.752 773.893C275.626 773.893 274.802 773.067 274.651 772.016L268.871 722.836Z" fill="#313131"/>
<path d="M291.846 762.23C291.527 762.23 291.127 762.23 290.888 762.152C288.732 761.672 287.453 759.515 287.933 757.276L313.335 653.065C313.654 651.706 314.612 650.667 315.89 650.187L341.29 641.717C341.69 641.637 342.168 641.557 342.568 641.557C344.246 641.557 345.843 642.676 346.323 644.354C346.642 645.314 346.642 646.432 346.162 647.391C345.682 648.35 344.884 649.069 343.926 649.389L320.601 657.062L295.679 759.195C295.281 760.952 293.604 762.23 291.846 762.23Z" fill="#313131"/>
<path d="M342.57 643.715C343.289 643.715 343.847 644.115 344.087 644.834C344.406 645.633 343.926 646.591 343.128 646.912L318.606 655.143L293.365 758.554C293.206 759.274 292.567 759.752 291.767 759.752L291.368 759.752C290.488 759.592 290.01 758.633 290.17 757.755L315.571 653.545C315.651 653.066 316.051 652.586 316.689 652.345L342.09 643.874C342.17 643.874 342.329 643.715 342.57 643.715ZM342.57 639C341.851 639 341.212 639.08 340.493 639.32L315.092 647.791C313.015 648.51 311.418 650.189 310.938 652.345L285.616 756.717C284.819 760.154 286.894 763.671 290.329 764.469C290.808 764.549 291.287 764.63 291.846 764.63C294.801 764.63 297.358 762.632 298.077 759.756L322.6 658.901L344.647 651.468C346.244 650.91 347.602 649.79 348.321 648.192C349.12 646.593 349.201 644.915 348.641 643.317C347.682 640.758 345.366 639 342.57 639Z" fill="#2D2C2C"/>
<path d="M291.446 759.754L291.846 759.754C292.565 759.754 293.204 759.274 293.443 758.556L302.63 720.675C302.31 720.596 302.071 720.355 301.75 720.275C301.032 719.956 300.392 719.556 299.673 719.397L290.247 757.837C290.088 758.635 290.568 759.594 291.446 759.754Z" fill="#313131"/>
<path d="M275.152 775C274.962 775 274.749 774.938 274.499 774.813C273.862 774.554 273.452 774.031 273.411 773.458L267.259 721.246C267.253 721.144 267.282 720.996 267.316 720.825L267.333 720.737L267.33 720.609L265.921 708.667L265.444 708.633C260.236 708.27 256 703.742 256 698.537C256 693.046 260.637 688.406 266.126 688.406L268.591 688.406L268.688 687.948C272.243 671.138 285.806 659.396 301.671 659.396C317.385 659.396 331.155 671.4 334.414 687.94L334.507 688.406L335.78 688.406C341.269 688.406 345.906 693.046 345.906 698.537C345.906 703.345 342.312 707.628 337.545 708.498L337.118 708.577L330.812 771.363C330.786 771.631 330.726 771.912 330.627 772.221L330.491 773.439C330.368 774.299 329.684 774.917 328.829 774.917L327.704 774.917C327.351 774.974 327.095 774.997 326.833 774.997L275.152 774.997L275.152 775ZM285.297 724.652C282.147 724.652 279.064 724.907 276.342 725.131L274.752 725.261L279.751 768.003L324.322 768.003L328.288 728.248L327.508 728.421C322.229 729.596 317.645 730.165 313.495 730.165C307.594 730.165 302.417 729.032 298.105 726.795C296.673 725.998 293.085 724.652 285.297 724.652ZM285.297 717.817C292.334 717.817 297.67 718.787 301.154 720.701C304.572 722.449 308.665 723.331 313.335 723.331C317.922 723.331 323.083 722.537 328.674 720.972L329.053 720.865L330.268 708.749L272.825 708.749L273.972 718.575L274.547 718.506C278.288 718.049 281.905 717.817 285.297 717.817ZM266.285 695.162C264.514 695.162 263.071 696.604 263.071 698.378C263.071 700.182 264.483 701.594 266.285 701.594L335.939 701.594C337.681 701.594 339.153 700.121 339.153 698.378C339.153 696.575 337.741 695.162 335.939 695.162L335.139 695.162C331.663 695.162 328.607 692.666 327.877 689.228C325.101 675.904 314.078 666.233 301.671 666.233C289.147 666.233 278.158 675.908 275.544 689.237C274.885 692.672 271.833 695.164 268.282 695.164L266.285 695.164L266.285 695.162Z" fill="#2D2C2C"/>
<path d="M310.298 738.257C310.298 739.713 311.478 740.894 312.933 740.894C314.39 740.894 315.571 739.713 315.571 738.257C315.571 736.801 314.39 735.62 312.933 735.62C311.478 735.618 310.298 736.799 310.298 738.257Z" fill="#2D2C2C"/>
<path d="M315.571 749.685C315.571 751.141 316.751 752.322 318.206 752.322C319.661 752.322 320.842 751.141 320.842 749.685C320.842 748.229 319.661 747.046 318.206 747.046C316.751 747.046 315.571 748.227 315.571 749.685Z" fill="#2D2C2C"/>
<path d="M284.337 749.765C284.337 750.824 285.195 751.683 286.255 751.683C287.314 751.683 288.173 750.824 288.173 749.765C288.173 748.706 287.315 747.846 286.255 747.846C285.197 747.846 284.337 748.704 284.337 749.765Z" fill="#2D2C2C"/>
<path d="M284.976 738.257C284.976 738.964 285.548 739.535 286.254 739.535C286.96 739.535 287.531 738.962 287.531 738.257C287.531 737.551 286.959 736.979 286.254 736.979C285.548 736.977 284.976 737.55 284.976 738.257Z" fill="#2D2C2C"/>
<path d="M311.656 759.594C311.656 760.078 312.049 760.474 312.534 760.474C313.02 760.474 313.413 760.08 313.413 759.594C313.413 759.109 313.02 758.715 312.534 758.715C312.049 758.715 311.656 759.109 311.656 759.594Z" fill="#2D2C2C"/>
</g>
<g clip-path="url(#clip3_73_39)">
<path d="M913.871 587.836C913.796 586.709 914.546 585.734 915.672 585.51C921.302 584.458 937.886 582.281 946.667 586.936C956.048 591.892 970.231 587.836 976.535 585.735C978.036 585.21 979.536 586.411 979.311 587.988L974.357 637.016C974.281 638.141 973.306 638.893 972.255 638.893L921.752 638.893C920.626 638.893 919.802 638.067 919.651 637.016L913.871 587.836Z" fill="#313131"/>
<path d="M936.846 627.23C936.527 627.23 936.127 627.23 935.888 627.152C933.732 626.672 932.453 624.515 932.933 622.276L958.335 518.065C958.654 516.706 959.612 515.667 960.89 515.187L986.29 506.717C986.69 506.637 987.168 506.557 987.568 506.557C989.246 506.557 990.843 507.676 991.323 509.354C991.642 510.314 991.642 511.432 991.162 512.391C990.682 513.35 989.884 514.069 988.926 514.389L965.601 522.062L940.679 624.195C940.281 625.952 938.604 627.23 936.846 627.23Z" fill="#313131"/>
<path d="M987.57 508.715C988.289 508.715 988.847 509.115 989.087 509.834C989.406 510.633 988.926 511.591 988.128 511.912L963.606 520.143L938.365 623.554C938.206 624.274 937.567 624.752 936.767 624.752L936.368 624.752C935.488 624.592 935.01 623.633 935.17 622.755L960.571 518.545C960.651 518.066 961.051 517.586 961.689 517.345L987.09 508.874C987.17 508.874 987.329 508.715 987.57 508.715ZM987.57 504C986.851 504 986.212 504.08 985.493 504.32L960.092 512.791C958.015 513.51 956.418 515.189 955.938 517.345L930.616 621.717C929.819 625.154 931.894 628.671 935.329 629.469C935.808 629.549 936.287 629.63 936.846 629.63C939.801 629.63 942.358 627.632 943.077 624.756L967.6 523.901L989.647 516.468C991.244 515.91 992.602 514.79 993.321 513.192C994.12 511.593 994.201 509.915 993.641 508.317C992.682 505.758 990.366 504 987.57 504Z" fill="#2D2C2C"/>
<path d="M936.446 624.754L936.846 624.754C937.565 624.754 938.204 624.274 938.443 623.556L947.63 585.675C947.31 585.596 947.071 585.355 946.75 585.275C946.032 584.956 945.392 584.556 944.673 584.397L935.247 622.837C935.088 623.635 935.568 624.594 936.446 624.754Z" fill="#313131"/>
<path d="M920.152 640C919.962 640 919.749 639.938 919.499 639.813C918.862 639.554 918.452 639.031 918.411 638.458L912.259 586.246C912.253 586.144 912.282 585.996 912.316 585.825L912.333 585.737L912.33 585.609L910.921 573.667L910.444 573.633C905.236 573.27 901 568.742 901 563.537C901 558.046 905.637 553.406 911.126 553.406L913.591 553.406L913.688 552.948C917.243 536.138 930.806 524.396 946.671 524.396C962.385 524.396 976.155 536.4 979.414 552.94L979.507 553.406L980.78 553.406C986.269 553.406 990.906 558.046 990.906 563.537C990.906 568.345 987.312 572.628 982.545 573.498L982.118 573.577L975.812 636.363C975.786 636.631 975.726 636.912 975.627 637.221L975.491 638.439C975.368 639.299 974.684 639.917 973.829 639.917L972.704 639.917C972.351 639.974 972.095 639.997 971.833 639.997L920.152 639.997L920.152 640ZM930.297 589.652C927.147 589.652 924.064 589.907 921.342 590.131L919.752 590.261L924.751 633.003L969.322 633.003L973.288 593.248L972.508 593.421C967.229 594.596 962.645 595.165 958.495 595.165C952.594 595.165 947.417 594.032 943.105 591.795C941.673 590.998 938.085 589.652 930.297 589.652ZM930.297 582.817C937.334 582.817 942.67 583.787 946.154 585.701C949.572 587.449 953.665 588.331 958.335 588.331C962.922 588.331 968.083 587.537 973.674 585.972L974.053 585.865L975.268 573.749L917.825 573.749L918.972 583.575L919.547 583.506C923.288 583.049 926.905 582.817 930.297 582.817ZM911.285 560.162C909.514 560.162 908.071 561.604 908.071 563.378C908.071 565.182 909.483 566.594 911.285 566.594L980.939 566.594C982.681 566.594 984.153 565.121 984.153 563.378C984.153 561.575 982.741 560.162 980.939 560.162L980.139 560.162C976.663 560.162 973.607 557.666 972.877 554.228C970.101 540.904 959.078 531.233 946.671 531.233C934.147 531.233 923.158 540.908 920.544 554.237C919.885 557.672 916.833 560.164 913.282 560.164L911.285 560.164L911.285 560.162Z" fill="#2D2C2C"/>
<path d="M955.298 603.257C955.298 604.713 956.478 605.894 957.933 605.894C959.39 605.894 960.571 604.713 960.571 603.257C960.571 601.801 959.39 600.62 957.933 600.62C956.478 600.618 955.298 601.799 955.298 603.257Z" fill="#2D2C2C"/>
<path d="M960.571 614.685C960.571 616.141 961.751 617.322 963.206 617.322C964.661 617.322 965.842 616.141 965.842 614.685C965.842 613.229 964.661 612.046 963.206 612.046C961.751 612.046 960.571 613.227 960.571 614.685Z" fill="#2D2C2C"/>
<path d="M929.337 614.765C929.337 615.824 930.195 616.683 931.255 616.683C932.314 616.683 933.173 615.824 933.173 614.765C933.173 613.706 932.315 612.846 931.255 612.846C930.197 612.846 929.337 613.704 929.337 614.765Z" fill="#2D2C2C"/>
<path d="M929.976 603.257C929.976 603.964 930.548 604.535 931.254 604.535C931.96 604.535 932.531 603.962 932.531 603.257C932.531 602.551 931.959 601.979 931.254 601.979C930.548 601.977 929.976 602.55 929.976 603.257Z" fill="#2D2C2C"/>
<path d="M956.656 624.594C956.656 625.078 957.049 625.474 957.534 625.474C958.02 625.474 958.413 625.08 958.413 624.594C958.413 624.109 958.02 623.715 957.534 623.715C957.049 623.715 956.656 624.109 956.656 624.594Z" fill="#2D2C2C"/>
</g>
<path d="M1796.77 855.15L1796.33 855.032C1795.61 854.879 1794.91 854.789 1794.22 854.814C1792.42 854.862 1790.89 855.489 1789.44 857.409L1779.63 870.96L1791.76 879.415L1802.25 866.322C1803.7 864.402 1803.87 862.817 1803.37 861.188C1802.89 859.505 1801.59 857.834 1799.83 856.614C1798.9 855.956 1797.84 855.456 1796.77 855.146L1796.77 855.15ZM1775.49 876.715L1684.06 1003.06L1689.75 1006.99L1787.33 884.967L1775.49 876.715ZM1849.72 901.344C1847.99 900.963 1846.31 901.187 1844.35 902.642L1831.08 913.223L1840.6 924.271L1854.38 914.318C1856.34 912.882 1856.92 911.362 1856.89 909.72C1856.85 907.953 1856.08 906.071 1854.68 904.469C1853.48 903.058 1851.93 902.013 1850.4 901.525L1849.72 901.344V901.344ZM1825.46 917.681L1701.78 1016.22L1706.24 1021.38L1834.74 928.502L1825.46 917.681Z" fill="#2D2C2C"/>
<path d="M1756.41 58.0312L1755.97 57.9141C1755.25 57.7606 1754.55 57.671 1753.86 57.6951C1752.06 57.7435 1750.53 58.371 1749.08 60.2905L1739.27 73.8419L1751.4 82.2969L1761.89 69.2032C1763.34 67.2837 1763.51 65.6989 1763.01 64.0695C1762.53 62.3867 1761.23 60.7151 1759.47 59.4959C1758.54 58.8379 1757.48 58.3377 1756.41 58.0274L1756.41 58.0312ZM1735.13 79.5965L1643.7 205.939L1649.39 209.874L1746.97 87.8481L1735.13 79.5965ZM1809.36 104.226C1807.63 103.844 1805.95 104.069 1803.99 105.524L1790.72 116.104L1800.24 127.153L1814.02 117.2C1815.98 115.764 1816.56 114.244 1816.53 112.602C1816.49 110.835 1815.72 108.952 1814.32 107.351C1813.12 105.939 1811.57 104.895 1810.04 104.407L1809.36 104.226V104.226ZM1785.1 120.562L1661.42 219.103L1665.88 224.259L1794.38 131.384L1785.1 120.562Z" fill="#2D2C2C"/>
<path d="M1358.77 416.15L1358.33 416.032C1357.61 415.879 1356.91 415.789 1356.22 415.814C1354.42 415.862 1352.89 416.489 1351.44 418.409L1341.63 431.96L1353.76 440.415L1364.25 427.322C1365.7 425.402 1365.87 423.817 1365.37 422.188C1364.89 420.505 1363.59 418.834 1361.83 417.614C1360.9 416.956 1359.84 416.456 1358.77 416.146L1358.77 416.15ZM1337.49 437.715L1246.06 564.057L1251.75 567.993L1349.33 445.967L1337.49 437.715ZM1411.72 462.344C1409.99 461.963 1408.31 462.187 1406.35 463.642L1393.08 474.223L1402.6 485.271L1416.38 475.318C1418.34 473.882 1418.92 472.362 1418.89 470.72C1418.85 468.953 1418.08 467.071 1416.68 465.469C1415.48 464.058 1413.93 463.013 1412.4 462.525L1411.72 462.344V462.344ZM1387.46 478.681L1263.78 577.221L1268.24 582.378L1396.74 489.502L1387.46 478.681Z" fill="#2D2C2C"/>
<path d="M634.771 403.15L634.334 403.032C633.608 402.879 632.908 402.789 632.22 402.814C630.419 402.862 628.888 403.489 627.437 405.409L617.63 418.96L629.759 427.415L640.252 414.322C641.703 412.402 641.872 410.817 641.372 409.188C640.886 407.505 639.588 405.834 637.828 404.614C636.897 403.956 635.838 403.456 634.772 403.146L634.771 403.15ZM613.491 424.715L522.064 551.057L527.755 554.993L625.333 432.967L613.491 424.715ZM687.722 449.344C685.993 448.963 684.314 449.187 682.349 450.642L669.08 461.223L678.597 472.271L692.38 462.318C694.34 460.882 694.918 459.362 694.889 457.72C694.852 455.953 694.078 454.071 692.676 452.469C691.479 451.058 689.927 450.013 688.397 449.525L687.722 449.344V449.344ZM663.456 465.681L539.783 564.221L544.236 569.378L672.736 476.502L663.456 465.681Z" fill="#2D2C2C"/>
<path d="M1029.41 156.031L1028.97 155.914C1028.25 155.761 1027.55 155.671 1026.86 155.695C1025.06 155.743 1023.53 156.371 1022.08 158.291L1012.27 171.842L1024.4 180.297L1034.89 167.203C1036.34 165.284 1036.51 163.699 1036.01 162.069C1035.53 160.387 1034.23 158.715 1032.47 157.496C1031.54 156.838 1030.48 156.338 1029.41 156.027L1029.41 156.031ZM1008.13 177.596L916.703 303.939L922.394 307.874L1019.97 185.848L1008.13 177.596ZM1082.36 202.226C1080.63 201.844 1078.95 202.069 1076.99 203.524L1063.72 214.104L1073.24 225.153L1087.02 215.2C1088.98 213.764 1089.56 212.244 1089.53 210.602C1089.49 208.835 1088.72 206.952 1087.32 205.351C1086.12 203.939 1084.57 202.895 1083.04 202.407L1082.36 202.226V202.226ZM1058.1 218.562L934.422 317.103L938.875 322.259L1067.38 229.384L1058.1 218.562Z" fill="#2D2C2C"/>
<path d="M612.25 119.938C615.749 119.941 619.204 120.716 622.37 122.206C625.536 123.697 628.334 125.867 630.566 128.562C632.797 131.257 634.408 134.41 635.282 137.798C636.157 141.186 636.274 144.725 635.626 148.164C634.977 151.602 633.579 154.855 631.53 157.692C629.482 160.528 626.833 162.879 623.773 164.575C620.713 166.272 617.316 167.274 613.825 167.509C610.334 167.744 606.834 167.207 603.574 165.935L576.531 201.964V223.125H588.437C589.49 223.125 590.5 223.543 591.244 224.287C591.988 225.032 592.406 226.041 592.406 227.094C592.406 228.146 591.988 229.156 591.244 229.9C590.5 230.644 589.49 231.063 588.437 231.063H556.687C555.635 231.063 554.625 230.644 553.881 229.9C553.137 229.156 552.719 228.146 552.719 227.094C552.719 226.041 553.137 225.032 553.881 224.287C554.625 223.543 555.635 223.125 556.687 223.125H568.594V201.964L526.525 145.925C525.495 144.551 524.938 142.88 524.938 141.162V139.837C524.938 138.784 525.356 137.775 526.1 137.031C526.844 136.286 527.854 135.868 528.906 135.868H537.812L529.684 125.47C529.036 124.641 528.743 123.588 528.871 122.543C528.999 121.498 529.537 120.546 530.367 119.898C531.196 119.249 532.249 118.957 533.294 119.085C534.339 119.213 535.29 119.751 535.939 120.58L547.877 135.868H589.763C591.398 131.21 594.44 127.175 598.469 124.321C602.497 121.467 607.313 119.935 612.25 119.938ZM598.47 135.868H616.219C617.271 135.868 618.281 136.286 619.025 137.031C619.769 137.775 620.187 138.784 620.187 139.837V141.154C620.187 142.872 619.63 144.543 618.6 145.917L608.623 159.212C611.489 159.884 614.487 159.745 617.279 158.811C620.071 157.877 622.549 156.185 624.435 153.924C626.321 151.663 627.541 148.921 627.958 146.007C628.376 143.092 627.975 140.119 626.799 137.419C625.624 134.719 623.721 132.399 621.303 130.719C618.885 129.039 616.047 128.064 613.107 127.904C610.167 127.744 607.24 128.405 604.654 129.813C602.068 131.221 599.924 133.32 598.463 135.876V135.868H598.47ZM554.084 143.806L570.142 164.364C570.753 165.196 571.016 166.234 570.875 167.257C570.734 168.28 570.2 169.208 569.386 169.843C568.571 170.478 567.542 170.771 566.515 170.66C565.488 170.548 564.545 170.041 563.887 169.245L544.011 143.806H534.859L572.562 194.026L610.266 143.806H554.084Z" fill="#2D2C2C"/>
<path d="M1776.25 352.938C1779.75 352.941 1783.2 353.716 1786.37 355.206C1789.54 356.697 1792.33 358.867 1794.57 361.562C1796.8 364.257 1798.41 367.41 1799.28 370.798C1800.16 374.186 1800.27 377.725 1799.63 381.164C1798.98 384.602 1797.58 387.855 1795.53 390.692C1793.48 393.528 1790.83 395.879 1787.77 397.575C1784.71 399.272 1781.32 400.274 1777.83 400.509C1774.33 400.744 1770.83 400.207 1767.57 398.935L1740.53 434.964V456.125H1752.44C1753.49 456.125 1754.5 456.543 1755.24 457.287C1755.99 458.032 1756.41 459.041 1756.41 460.094C1756.41 461.146 1755.99 462.156 1755.24 462.9C1754.5 463.644 1753.49 464.063 1752.44 464.063H1720.69C1719.63 464.063 1718.63 463.644 1717.88 462.9C1717.14 462.156 1716.72 461.146 1716.72 460.094C1716.72 459.041 1717.14 458.032 1717.88 457.287C1718.63 456.543 1719.63 456.125 1720.69 456.125H1732.59V434.964L1690.53 378.925C1689.49 377.551 1688.94 375.88 1688.94 374.162V372.837C1688.94 371.784 1689.36 370.775 1690.1 370.031C1690.84 369.286 1691.85 368.868 1692.91 368.868H1701.81L1693.68 358.47C1693.04 357.641 1692.74 356.588 1692.87 355.543C1693 354.498 1693.54 353.546 1694.37 352.898C1695.2 352.249 1696.25 351.957 1697.29 352.085C1698.34 352.213 1699.29 352.751 1699.94 353.58L1711.88 368.868H1753.76C1755.4 364.21 1758.44 360.175 1762.47 357.321C1766.5 354.467 1771.31 352.935 1776.25 352.938ZM1762.47 368.868H1780.22C1781.27 368.868 1782.28 369.286 1783.03 370.031C1783.77 370.775 1784.19 371.784 1784.19 372.837V374.154C1784.19 375.872 1783.63 377.543 1782.6 378.917L1772.62 392.212C1775.49 392.884 1778.49 392.745 1781.28 391.811C1784.07 390.877 1786.55 389.185 1788.44 386.924C1790.32 384.663 1791.54 381.921 1791.96 379.007C1792.38 376.092 1791.97 373.119 1790.8 370.419C1789.62 367.719 1787.72 365.399 1785.3 363.719C1782.88 362.039 1780.05 361.064 1777.11 360.904C1774.17 360.744 1771.24 361.405 1768.65 362.813C1766.07 364.221 1763.92 366.32 1762.46 368.876V368.868H1762.47ZM1718.08 376.806L1734.14 397.364C1734.75 398.196 1735.02 399.234 1734.88 400.257C1734.73 401.28 1734.2 402.208 1733.39 402.843C1732.57 403.478 1731.54 403.771 1730.51 403.66C1729.49 403.548 1728.55 403.041 1727.89 402.245L1708.01 376.806H1698.86L1736.56 427.026L1774.27 376.806H1718.08Z" fill="#2D2C2C"/>
<path d="M1426.25 119.938C1429.75 119.941 1433.2 120.716 1436.37 122.206C1439.54 123.697 1442.33 125.867 1444.57 128.562C1446.8 131.257 1448.41 134.41 1449.28 137.798C1450.16 141.186 1450.27 144.725 1449.63 148.164C1448.98 151.602 1447.58 154.855 1445.53 157.692C1443.48 160.528 1440.83 162.879 1437.77 164.575C1434.71 166.272 1431.32 167.274 1427.83 167.509C1424.33 167.744 1420.83 167.207 1417.57 165.935L1390.53 201.964V223.125H1402.44C1403.49 223.125 1404.5 223.543 1405.24 224.287C1405.99 225.032 1406.41 226.041 1406.41 227.094C1406.41 228.146 1405.99 229.156 1405.24 229.9C1404.5 230.644 1403.49 231.063 1402.44 231.063H1370.69C1369.63 231.063 1368.63 230.644 1367.88 229.9C1367.14 229.156 1366.72 228.146 1366.72 227.094C1366.72 226.041 1367.14 225.032 1367.88 224.287C1368.63 223.543 1369.63 223.125 1370.69 223.125H1382.59V201.964L1340.53 145.925C1339.49 144.551 1338.94 142.88 1338.94 141.162V139.837C1338.94 138.784 1339.36 137.775 1340.1 137.031C1340.84 136.286 1341.85 135.868 1342.91 135.868H1351.81L1343.68 125.47C1343.04 124.641 1342.74 123.588 1342.87 122.543C1343 121.498 1343.54 120.546 1344.37 119.898C1345.2 119.249 1346.25 118.957 1347.29 119.085C1348.34 119.213 1349.29 119.751 1349.94 120.58L1361.88 135.868H1403.76C1405.4 131.21 1408.44 127.175 1412.47 124.321C1416.5 121.467 1421.31 119.935 1426.25 119.938ZM1412.47 135.868H1430.22C1431.27 135.868 1432.28 136.286 1433.03 137.031C1433.77 137.775 1434.19 138.784 1434.19 139.837V141.154C1434.19 142.872 1433.63 144.543 1432.6 145.917L1422.62 159.212C1425.49 159.884 1428.49 159.745 1431.28 158.811C1434.07 157.877 1436.55 156.185 1438.44 153.924C1440.32 151.663 1441.54 148.921 1441.96 146.007C1442.38 143.092 1441.97 140.119 1440.8 137.419C1439.62 134.719 1437.72 132.399 1435.3 130.719C1432.88 129.039 1430.05 128.064 1427.11 127.904C1424.17 127.744 1421.24 128.405 1418.65 129.813C1416.07 131.221 1413.92 133.32 1412.46 135.876V135.868H1412.47ZM1368.08 143.806L1384.14 164.364C1384.75 165.196 1385.02 166.234 1384.88 167.257C1384.73 168.28 1384.2 169.208 1383.39 169.843C1382.57 170.478 1381.54 170.771 1380.51 170.66C1379.49 170.548 1378.55 170.041 1377.89 169.245L1358.01 143.806H1348.86L1386.56 194.026L1424.27 143.806H1368.08Z" fill="#2D2C2C"/>
<path d="M270.25 345.938C273.749 345.941 277.204 346.716 280.37 348.206C283.536 349.697 286.334 351.867 288.566 354.562C290.797 357.257 292.408 360.41 293.282 363.798C294.157 367.186 294.274 370.725 293.626 374.164C292.977 377.602 291.579 380.855 289.53 383.692C287.482 386.528 284.833 388.879 281.773 390.575C278.713 392.272 275.316 393.274 271.825 393.509C268.334 393.744 264.834 393.207 261.574 391.935L234.531 427.964V449.125H246.437C247.49 449.125 248.5 449.543 249.244 450.287C249.988 451.032 250.406 452.041 250.406 453.094C250.406 454.146 249.988 455.156 249.244 455.9C248.5 456.644 247.49 457.063 246.437 457.063H214.687C213.635 457.063 212.625 456.644 211.881 455.9C211.137 455.156 210.719 454.146 210.719 453.094C210.719 452.041 211.137 451.032 211.881 450.287C212.625 449.543 213.635 449.125 214.687 449.125H226.594V427.964L184.525 371.925C183.495 370.551 182.938 368.88 182.938 367.162V365.837C182.938 364.784 183.356 363.775 184.1 363.031C184.844 362.286 185.854 361.868 186.906 361.868H195.812L187.684 351.47C187.036 350.641 186.743 349.588 186.871 348.543C186.999 347.498 187.537 346.546 188.367 345.898C189.196 345.249 190.249 344.957 191.294 345.085C192.339 345.213 193.29 345.751 193.939 346.58L205.877 361.868H247.763C249.398 357.21 252.44 353.175 256.469 350.321C260.497 347.467 265.313 345.935 270.25 345.938ZM256.47 361.868H274.219C275.271 361.868 276.281 362.286 277.025 363.031C277.769 363.775 278.187 364.784 278.187 365.837V367.154C278.187 368.872 277.63 370.543 276.6 371.917L266.623 385.212C269.489 385.884 272.487 385.745 275.279 384.811C278.071 383.877 280.549 382.185 282.435 379.924C284.321 377.663 285.541 374.921 285.958 372.007C286.376 369.092 285.975 366.119 284.799 363.419C283.624 360.719 281.721 358.399 279.303 356.719C276.885 355.039 274.047 354.064 271.107 353.904C268.167 353.744 265.24 354.405 262.654 355.813C260.068 357.221 257.924 359.32 256.463 361.876V361.868H256.47ZM212.084 369.806L228.142 390.364C228.753 391.196 229.016 392.234 228.875 393.257C228.734 394.28 228.2 395.208 227.386 395.843C226.571 396.478 225.542 396.771 224.515 396.66C223.488 396.548 222.545 396.041 221.887 395.245L202.011 369.806H192.859L230.562 420.026L268.266 369.806H212.084Z" fill="#2D2C2C"/>
</g>
<defs>
<clipPath id="clip0_73_39">
<rect width="1920" height="1080" fill="white"/>
</clipPath>
<clipPath id="clip1_73_39">
<rect width="93" height="136" fill="white" transform="translate(1573 640)"/>
</clipPath>
<clipPath id="clip2_73_39">
<rect width="93" height="136" fill="white" transform="translate(256 639)"/>
</clipPath>
<clipPath id="clip3_73_39">
<rect width="93" height="136" fill="white" transform="translate(901 504)"/>
</clipPath>
</defs>
</svg>
