<svg width="1920" height="1080" viewBox="0 0 1920 1080" fill="none" xmlns="http://www.w3.org/2000/svg">
<g clip-path="url(#clip0_27_93)">
<rect width="1920" height="1080" fill="#272727"/>
<line y1="-2.5" x2="3.64222" y2="-2.5" transform="matrix(0.965926 0.258819 -0.269188 0.963088 39.0861 715.332)" stroke="#313131" stroke-width="5"/>
<line y1="-2.5" x2="3.64222" y2="-2.5" transform="matrix(0.965926 0.258819 -0.269188 0.963088 39.0861 715.332)" stroke="#313131" stroke-width="5"/>
<path d="M217.41 58.0312L216.973 57.9141C216.247 57.7606 215.547 57.671 214.86 57.6951C213.058 57.7435 211.527 58.371 210.076 60.2905L200.27 73.8419L212.398 82.2969L222.891 69.2032C224.342 67.2837 224.512 65.6989 224.011 64.0695C223.525 62.3867 222.227 60.7151 220.467 59.4959C219.536 58.8379 218.478 58.3377 217.411 58.0274L217.41 58.0312ZM196.13 79.5965L104.703 205.939L110.394 209.874L207.973 87.8481L196.13 79.5965ZM270.361 104.226C268.632 103.844 266.953 104.069 264.988 105.524L251.719 116.104L261.237 127.153L275.019 117.2C276.979 115.764 277.557 114.244 277.528 112.602C277.491 110.835 276.717 108.952 275.315 107.351C274.118 105.939 272.567 104.895 271.036 104.407L270.361 104.226V104.226ZM246.095 120.562L122.422 219.103L126.875 224.259L255.376 131.384L246.095 120.562Z" fill="#2D2C2C"/>
<path d="M473.321 784.136C477.544 779.92 480.764 774.81 482.744 769.183C484.724 763.556 485.414 757.556 484.761 751.626C484.109 745.697 482.132 739.99 478.976 734.927C475.82 729.865 471.566 725.576 466.528 722.379C453.767 713.938 436.689 713.874 423.801 722.189C412.627 729.361 406.469 740.532 405.389 752.083C404.564 760.461 401.39 768.268 395.549 774.107L395.358 774.298C387.994 781.66 387.994 792.895 394.914 799.749L401.199 806.033C404.525 809.356 409.036 811.223 413.738 811.223C418.441 811.223 422.951 809.356 426.277 806.033C432.435 799.876 440.562 796.512 449.386 795.56C458.084 794.608 466.592 790.8 473.321 784.136M385.073 829.39C386.787 832.944 386.216 837.26 383.232 840.18C381.94 841.491 380.293 842.397 378.493 842.786C376.693 843.175 374.819 843.031 373.1 842.371C371.381 841.71 369.892 840.562 368.816 839.068C367.74 837.574 367.124 835.799 367.043 833.96C365.203 833.879 363.427 833.262 361.933 832.187C360.438 831.111 359.29 829.623 358.63 827.904C357.969 826.186 357.825 824.312 358.214 822.513C358.603 820.713 359.509 819.067 360.821 817.775C363.741 814.855 368.122 814.221 371.614 815.934L387.359 800.511C388.248 801.717 389.264 803.113 390.406 804.256L396.692 810.539C398.025 811.809 399.295 812.888 400.945 813.84L385.073 829.39V829.39Z" fill="#2D2C2C"/>
<path d="M168.771 870.15L168.334 870.032C167.608 869.879 166.908 869.789 166.22 869.814C164.419 869.862 162.888 870.489 161.437 872.409L151.63 885.96L163.759 894.415L174.252 881.322C175.703 879.402 175.872 877.817 175.372 876.188C174.886 874.505 173.588 872.834 171.828 871.614C170.897 870.956 169.838 870.456 168.772 870.146L168.771 870.15ZM147.491 891.715L56.0637 1018.06L61.755 1021.99L159.333 899.967L147.491 891.715ZM221.722 916.344C219.993 915.963 218.314 916.187 216.349 917.642L203.08 928.223L212.597 939.271L226.38 929.318C228.34 927.882 228.918 926.362 228.889 924.72C228.852 922.953 228.078 921.071 226.676 919.469C225.479 918.058 223.927 917.013 222.397 916.525L221.722 916.344V916.344ZM197.456 932.681L73.7831 1031.22L78.2359 1036.38L206.736 943.502L197.456 932.681Z" fill="#2D2C2C"/>
<path d="M730.771 794.15L730.334 794.032C729.608 793.879 728.908 793.789 728.22 793.814C726.419 793.862 724.888 794.489 723.437 796.409L713.63 809.96L725.759 818.415L736.252 805.322C737.703 803.402 737.872 801.817 737.372 800.188C736.886 798.505 735.588 796.834 733.828 795.614C732.897 794.956 731.838 794.456 730.772 794.146L730.771 794.15ZM709.491 815.715L618.064 942.057L623.755 945.993L721.333 823.967L709.491 815.715ZM783.722 840.344C781.993 839.963 780.314 840.187 778.349 841.642L765.08 852.223L774.597 863.271L788.379 853.318C790.34 851.882 790.918 850.362 790.889 848.72C790.851 846.953 790.078 845.071 788.676 843.469C787.479 842.058 785.927 841.013 784.397 840.525L783.722 840.344V840.344ZM759.456 856.681L635.783 955.221L640.236 960.378L768.736 867.502L759.456 856.681Z" fill="#2D2C2C"/>
<path d="M1224.77 794.15L1224.33 794.032C1223.61 793.879 1222.91 793.789 1222.22 793.814C1220.42 793.862 1218.89 794.489 1217.44 796.409L1207.63 809.96L1219.76 818.415L1230.25 805.322C1231.7 803.402 1231.87 801.817 1231.37 800.188C1230.89 798.505 1229.59 796.834 1227.83 795.614C1226.9 794.956 1225.84 794.456 1224.77 794.146L1224.77 794.15ZM1203.49 815.715L1112.06 942.057L1117.75 945.993L1215.33 823.967L1203.49 815.715ZM1277.72 840.344C1275.99 839.963 1274.31 840.187 1272.35 841.642L1259.08 852.223L1268.6 863.271L1282.38 853.318C1284.34 851.882 1284.92 850.362 1284.89 848.72C1284.85 846.953 1284.08 845.071 1282.68 843.469C1281.48 842.058 1279.93 841.013 1278.4 840.525L1277.72 840.344V840.344ZM1253.46 856.681L1129.78 955.221L1134.24 960.378L1262.74 867.502L1253.46 856.681Z" fill="#2D2C2C"/>
<path d="M1796.77 855.15L1796.33 855.032C1795.61 854.879 1794.91 854.789 1794.22 854.814C1792.42 854.862 1790.89 855.489 1789.44 857.409L1779.63 870.96L1791.76 879.415L1802.25 866.322C1803.7 864.402 1803.87 862.817 1803.37 861.188C1802.89 859.505 1801.59 857.834 1799.83 856.614C1798.9 855.956 1797.84 855.456 1796.77 855.146L1796.77 855.15ZM1775.49 876.715L1684.06 1003.06L1689.75 1006.99L1787.33 884.967L1775.49 876.715ZM1849.72 901.344C1847.99 900.963 1846.31 901.187 1844.35 902.642L1831.08 913.223L1840.6 924.271L1854.38 914.318C1856.34 912.882 1856.92 911.362 1856.89 909.72C1856.85 907.953 1856.08 906.071 1854.68 904.469C1853.48 903.058 1851.93 902.013 1850.4 901.525L1849.72 901.344V901.344ZM1825.46 917.681L1701.78 1016.22L1706.24 1021.38L1834.74 928.502L1825.46 917.681Z" fill="#2D2C2C"/>
<path d="M1756.41 58.0312L1755.97 57.9141C1755.25 57.7606 1754.55 57.671 1753.86 57.6951C1752.06 57.7435 1750.53 58.371 1749.08 60.2905L1739.27 73.8419L1751.4 82.2969L1761.89 69.2032C1763.34 67.2837 1763.51 65.6989 1763.01 64.0695C1762.53 62.3867 1761.23 60.7151 1759.47 59.4959C1758.54 58.8379 1757.48 58.3377 1756.41 58.0274L1756.41 58.0312ZM1735.13 79.5965L1643.7 205.939L1649.39 209.874L1746.97 87.8481L1735.13 79.5965ZM1809.36 104.226C1807.63 103.844 1805.95 104.069 1803.99 105.524L1790.72 116.104L1800.24 127.153L1814.02 117.2C1815.98 115.764 1816.56 114.244 1816.53 112.602C1816.49 110.835 1815.72 108.952 1814.32 107.351C1813.12 105.939 1811.57 104.895 1810.04 104.407L1809.36 104.226V104.226ZM1785.1 120.562L1661.42 219.103L1665.88 224.259L1794.38 131.384L1785.1 120.562Z" fill="#2D2C2C"/>
<path d="M1387.77 394.15L1387.33 394.032C1386.61 393.879 1385.91 393.789 1385.22 393.814C1383.42 393.862 1381.89 394.489 1380.44 396.409L1370.63 409.96L1382.76 418.415L1393.25 405.322C1394.7 403.402 1394.87 401.817 1394.37 400.188C1393.89 398.505 1392.59 396.834 1390.83 395.614C1389.9 394.956 1388.84 394.456 1387.77 394.146L1387.77 394.15ZM1366.49 415.715L1275.06 542.057L1280.75 545.993L1378.33 423.967L1366.49 415.715ZM1440.72 440.344C1438.99 439.963 1437.31 440.187 1435.35 441.642L1422.08 452.223L1431.6 463.271L1445.38 453.318C1447.34 451.882 1447.92 450.362 1447.89 448.72C1447.85 446.953 1447.08 445.071 1445.68 443.469C1444.48 442.058 1442.93 441.013 1441.4 440.525L1440.72 440.344V440.344ZM1416.46 456.681L1292.78 555.221L1297.24 560.378L1425.74 467.502L1416.46 456.681Z" fill="#2D2C2C"/>
<path d="M553.771 388.15L553.334 388.032C552.608 387.879 551.908 387.789 551.22 387.814C549.419 387.862 547.888 388.489 546.437 390.409L536.63 403.96L548.759 412.415L559.252 399.322C560.703 397.402 560.872 395.817 560.372 394.188C559.886 392.505 558.588 390.834 556.828 389.614C555.897 388.956 554.838 388.456 553.772 388.146L553.771 388.15ZM532.491 409.715L441.064 536.057L446.755 539.993L544.333 417.967L532.491 409.715ZM606.722 434.344C604.993 433.963 603.314 434.187 601.349 435.642L588.08 446.223L597.597 457.271L611.379 447.318C613.34 445.882 613.918 444.362 613.889 442.72C613.851 440.953 613.078 439.071 611.676 437.469C610.479 436.058 608.927 435.013 607.397 434.525L606.722 434.344V434.344ZM582.456 450.681L458.783 549.221L463.236 554.378L591.736 461.502L582.456 450.681Z" fill="#2D2C2C"/>
<path d="M1029.41 156.031L1028.97 155.914C1028.25 155.761 1027.55 155.671 1026.86 155.695C1025.06 155.743 1023.53 156.371 1022.08 158.291L1012.27 171.842L1024.4 180.297L1034.89 167.203C1036.34 165.284 1036.51 163.699 1036.01 162.069C1035.53 160.387 1034.23 158.715 1032.47 157.496C1031.54 156.838 1030.48 156.338 1029.41 156.027L1029.41 156.031ZM1008.13 177.596L916.703 303.939L922.394 307.874L1019.97 185.848L1008.13 177.596ZM1082.36 202.226C1080.63 201.844 1078.95 202.069 1076.99 203.524L1063.72 214.104L1073.24 225.153L1087.02 215.2C1088.98 213.764 1089.56 212.244 1089.53 210.602C1089.49 208.835 1088.72 206.952 1087.32 205.351C1086.12 203.939 1084.57 202.895 1083.04 202.407L1082.36 202.226V202.226ZM1058.1 218.562L934.422 317.103L938.875 322.259L1067.38 229.384L1058.1 218.562Z" fill="#2D2C2C"/>
<path d="M623.321 131.136C627.544 126.92 630.764 121.81 632.744 116.183C634.724 110.556 635.414 104.556 634.761 98.6263C634.109 92.6968 632.132 86.9897 628.976 81.9272C625.82 76.8647 621.566 72.5763 616.528 69.3791C603.767 60.9376 586.689 60.8741 573.801 69.1887C562.627 76.3608 556.469 87.5316 555.389 99.0832C554.564 107.461 551.39 115.268 545.549 121.107L545.358 121.298C537.994 128.66 537.994 139.895 544.914 146.749L551.199 153.033C554.525 156.356 559.036 158.223 563.738 158.223C568.441 158.223 572.951 156.356 576.277 153.033C582.435 146.876 590.562 143.512 599.386 142.56C608.084 141.608 616.592 137.8 623.321 131.136M535.073 176.39C536.787 179.944 536.216 184.26 533.232 187.18C531.94 188.491 530.293 189.397 528.493 189.786C526.693 190.175 524.819 190.031 523.1 189.371C521.381 188.71 519.892 187.562 518.816 186.068C517.74 184.574 517.124 182.799 517.043 180.96C515.203 180.879 513.427 180.262 511.933 179.187C510.438 178.111 509.29 176.623 508.63 174.904C507.969 173.186 507.825 171.312 508.214 169.513C508.603 167.713 509.509 166.067 510.821 164.775C513.741 161.855 518.122 161.221 521.614 162.934L537.359 147.511C538.248 148.717 539.264 150.113 540.406 151.256L546.692 157.539C548.025 158.809 549.295 159.888 550.945 160.84L535.073 176.39V176.39Z" fill="#2D2C2C"/>
<path d="M1824.32 526.136C1828.54 521.92 1831.76 516.81 1833.74 511.183C1835.72 505.556 1836.41 499.556 1835.76 493.626C1835.11 487.697 1833.13 481.99 1829.98 476.927C1826.82 471.865 1822.57 467.576 1817.53 464.379C1804.77 455.938 1787.69 455.874 1774.8 464.189C1763.63 471.361 1757.47 482.532 1756.39 494.083C1755.56 502.461 1752.39 510.268 1746.55 516.107L1746.36 516.298C1738.99 523.66 1738.99 534.895 1745.91 541.749L1752.2 548.033C1755.53 551.356 1760.04 553.223 1764.74 553.223C1769.44 553.223 1773.95 551.356 1777.28 548.033C1783.44 541.876 1791.56 538.512 1800.39 537.56C1809.08 536.608 1817.59 532.8 1824.32 526.136M1736.07 571.39C1737.79 574.944 1737.22 579.26 1734.23 582.18C1732.94 583.491 1731.29 584.397 1729.49 584.786C1727.69 585.175 1725.82 585.031 1724.1 584.371C1722.38 583.71 1720.89 582.562 1719.82 581.068C1718.74 579.574 1718.12 577.799 1718.04 575.96C1716.2 575.879 1714.43 575.262 1712.93 574.187C1711.44 573.111 1710.29 571.623 1709.63 569.904C1708.97 568.186 1708.82 566.312 1709.21 564.513C1709.6 562.713 1710.51 561.067 1711.82 559.775C1714.74 556.855 1719.12 556.221 1722.61 557.934L1738.36 542.511C1739.25 543.717 1740.26 545.113 1741.41 546.256L1747.69 552.539C1749.02 553.809 1750.29 554.888 1751.95 555.84L1736.07 571.39V571.39Z" fill="#2D2C2C"/>
<path d="M1538.32 798.136C1542.54 793.92 1545.76 788.81 1547.74 783.183C1549.72 777.556 1550.41 771.556 1549.76 765.626C1549.11 759.697 1547.13 753.99 1543.98 748.927C1540.82 743.865 1536.57 739.576 1531.53 736.379C1518.77 727.938 1501.69 727.874 1488.8 736.189C1477.63 743.361 1471.47 754.532 1470.39 766.083C1469.56 774.461 1466.39 782.268 1460.55 788.107L1460.36 788.298C1452.99 795.66 1452.99 806.895 1459.91 813.749L1466.2 820.033C1469.53 823.356 1474.04 825.223 1478.74 825.223C1483.44 825.223 1487.95 823.356 1491.28 820.033C1497.44 813.876 1505.56 810.512 1514.39 809.56C1523.08 808.608 1531.59 804.8 1538.32 798.136M1450.07 843.39C1451.79 846.944 1451.22 851.26 1448.23 854.18C1446.94 855.491 1445.29 856.397 1443.49 856.786C1441.69 857.175 1439.82 857.031 1438.1 856.371C1436.38 855.71 1434.89 854.562 1433.82 853.068C1432.74 851.574 1432.12 849.799 1432.04 847.96C1430.2 847.879 1428.43 847.262 1426.93 846.187C1425.44 845.111 1424.29 843.623 1423.63 841.904C1422.97 840.186 1422.82 838.312 1423.21 836.513C1423.6 834.713 1424.51 833.067 1425.82 831.775C1428.74 828.855 1433.12 828.221 1436.61 829.934L1452.36 814.511C1453.25 815.717 1454.26 817.113 1455.41 818.256L1461.69 824.539C1463.02 825.809 1464.29 826.888 1465.95 827.84L1450.07 843.39V843.39Z" fill="#2D2C2C"/>
<path d="M1446.32 131.136C1450.54 126.92 1453.76 121.81 1455.74 116.183C1457.72 110.556 1458.41 104.556 1457.76 98.6263C1457.11 92.6968 1455.13 86.9897 1451.98 81.9272C1448.82 76.8647 1444.57 72.5763 1439.53 69.3791C1426.77 60.9376 1409.69 60.8741 1396.8 69.1887C1385.63 76.3608 1379.47 87.5316 1378.39 99.0832C1377.56 107.461 1374.39 115.268 1368.55 121.107L1368.36 121.298C1360.99 128.66 1360.99 139.895 1367.91 146.749L1374.2 153.033C1377.53 156.356 1382.04 158.223 1386.74 158.223C1391.44 158.223 1395.95 156.356 1399.28 153.033C1405.44 146.876 1413.56 143.512 1422.39 142.56C1431.08 141.608 1439.59 137.8 1446.32 131.136M1358.07 176.39C1359.79 179.944 1359.22 184.26 1356.23 187.18C1354.94 188.491 1353.29 189.397 1351.49 189.786C1349.69 190.175 1347.82 190.031 1346.1 189.371C1344.38 188.71 1342.89 187.562 1341.82 186.068C1340.74 184.574 1340.12 182.799 1340.04 180.96C1338.2 180.879 1336.43 180.262 1334.93 179.187C1333.44 178.111 1332.29 176.623 1331.63 174.904C1330.97 173.186 1330.82 171.312 1331.21 169.513C1331.6 167.713 1332.51 166.067 1333.82 164.775C1336.74 161.855 1341.12 161.221 1344.61 162.934L1360.36 147.511C1361.25 148.717 1362.26 150.113 1363.41 151.256L1369.69 157.539C1371.02 158.809 1372.29 159.888 1373.95 160.84L1358.07 176.39V176.39Z" fill="#2D2C2C"/>
<path d="M1012.32 545.136C1016.54 540.92 1019.76 535.81 1021.74 530.183C1023.72 524.556 1024.41 518.556 1023.76 512.626C1023.11 506.697 1021.13 500.99 1017.98 495.927C1014.82 490.865 1010.57 486.576 1005.53 483.379C992.767 474.938 975.689 474.874 962.801 483.189C951.627 490.361 945.469 501.532 944.389 513.083C943.564 521.461 940.39 529.268 934.549 535.107L934.358 535.298C926.994 542.66 926.994 553.895 933.914 560.749L940.199 567.033C943.525 570.356 948.036 572.223 952.738 572.223C957.441 572.223 961.951 570.356 965.277 567.033C971.435 560.876 979.562 557.512 988.386 556.56C997.084 555.608 1005.59 551.8 1012.32 545.136M924.073 590.39C925.787 593.944 925.216 598.26 922.232 601.18C920.94 602.491 919.293 603.397 917.493 603.786C915.693 604.175 913.819 604.031 912.1 603.371C910.381 602.71 908.892 601.562 907.816 600.068C906.74 598.574 906.124 596.799 906.043 594.96C904.203 594.879 902.427 594.262 900.933 593.187C899.438 592.111 898.29 590.623 897.63 588.904C896.969 587.186 896.825 585.312 897.214 583.513C897.603 581.713 898.509 580.067 899.821 578.775C902.741 575.855 907.122 575.221 910.614 576.934L926.359 561.511C927.248 562.717 928.264 564.113 929.406 565.256L935.692 571.539C937.025 572.809 938.295 573.888 939.945 574.84L924.073 590.39V590.39Z" fill="#2D2C2C"/>
<path d="M158.321 498.136C162.544 493.92 165.764 488.81 167.744 483.183C169.724 477.556 170.414 471.556 169.761 465.626C169.109 459.697 167.132 453.99 163.976 448.927C160.82 443.865 156.566 439.576 151.528 436.379C138.767 427.938 121.689 427.874 108.801 436.189C97.627 443.361 91.4687 454.532 90.3894 466.083C89.5641 474.461 86.3897 482.268 80.5488 488.107L80.3583 488.298C72.9938 495.66 72.9937 506.895 79.9139 513.749L86.1992 520.033C89.5255 523.356 94.0356 525.223 98.7381 525.223C103.441 525.223 107.951 523.356 111.277 520.033C117.435 513.876 125.562 510.512 134.386 509.56C143.084 508.608 151.592 504.8 158.321 498.136M70.0733 543.39C71.7875 546.944 71.2161 551.26 68.2322 554.18C66.9398 555.491 65.2927 556.397 63.4928 556.786C61.693 557.175 59.8186 557.031 58.0997 556.371C56.3808 555.71 54.8921 554.562 53.8162 553.068C52.7403 551.574 52.1239 549.799 52.0428 547.96C50.2031 547.879 48.4271 547.262 46.9326 546.187C45.4382 545.111 44.2902 543.623 43.6296 541.904C42.969 540.186 42.8245 538.312 43.2138 536.513C43.603 534.713 44.5091 533.067 45.821 531.775C48.7414 528.855 53.1221 528.221 56.6139 529.934L72.3589 514.511C73.2477 515.717 74.2635 517.113 75.4063 518.256L81.6916 524.539C83.0248 525.809 84.2946 526.888 85.9453 527.84L70.0733 543.39V543.39Z" fill="#2D2C2C"/>
</g>
<defs>
<clipPath id="clip0_27_93">
<rect width="1920" height="1080" fill="white"/>
</clipPath>
</defs>
</svg>
