<svg width="300" height="300" viewBox="0 0 300 300" fill="none" xmlns="http://www.w3.org/2000/svg">
<path d="M188.534 139.008C188.534 143.701 187.339 148.181 184.95 152.448C182.646 156.715 179.488 160.469 175.478 163.712C171.552 166.869 166.902 169.387 161.526 171.264C156.235 173.141 150.603 174.08 144.63 174.08C142.496 174.08 140.79 173.824 139.51 173.312C138.315 172.715 136.95 171.605 135.414 169.984C131.147 179.285 127.648 187.861 124.918 195.712C122.272 203.477 120.182 211.029 118.646 218.368C115.403 217.6 112.758 216.235 110.71 214.272C108.662 212.395 106.784 210.005 105.078 207.104C105.931 205.483 106.955 203.349 108.15 200.704C109.344 198.059 110.795 194.816 112.502 190.976C114.208 187.051 116.171 182.4 118.39 177.024C120.694 171.563 123.382 165.205 126.454 157.952C127.819 154.624 129.014 151.723 130.038 149.248C131.062 146.773 131.958 144.469 132.726 142.336C133.494 140.117 134.176 137.941 134.774 135.808C135.456 133.675 136.139 131.328 136.822 128.768C132.811 130.048 129.099 131.541 125.686 133.248C122.358 134.955 119.584 136.747 117.366 138.624C116.598 138.112 115.787 137.344 114.934 136.32C114.166 135.296 113.44 134.187 112.758 132.992C112.075 131.712 111.478 130.432 110.966 129.152C110.454 127.872 110.155 126.72 110.07 125.696C112.544 123.989 115.616 122.411 119.286 120.96C122.955 119.509 126.88 118.272 131.062 117.248C135.243 116.139 139.552 115.285 143.99 114.688C148.512 114.091 152.822 113.792 156.918 113.792C161.782 113.792 166.176 114.432 170.102 115.712C174.027 116.907 177.355 118.613 180.086 120.832C182.816 123.051 184.907 125.696 186.358 128.768C187.808 131.84 188.534 135.253 188.534 139.008ZM165.75 123.648C162.507 123.648 159.179 123.904 155.766 124.416L157.302 126.72C156.448 127.829 155.382 129.493 154.102 131.712C152.822 133.931 151.414 136.619 149.878 139.776C148.342 142.848 146.635 146.304 144.758 150.144C142.966 153.984 141.046 158.037 138.998 162.304C145.654 162.304 151.712 161.707 157.174 160.512C162.635 159.232 167.286 157.525 171.126 155.392C175.051 153.173 178.08 150.613 180.214 147.712C182.432 144.811 183.542 141.696 183.542 138.368C183.542 133.931 182.048 130.389 179.062 127.744C176.075 125.013 171.638 123.648 165.75 123.648Z" fill="#FF002B"/>
<path d="M184.95 152.448L184.077 151.959L184.073 151.966L184.07 151.973L184.95 152.448ZM175.478 163.712L176.104 164.491L176.106 164.49L175.478 163.712ZM161.526 171.264L161.196 170.32L161.191 170.322L161.526 171.264ZM139.51 173.312L139.062 174.206L139.099 174.225L139.138 174.24L139.51 173.312ZM135.413 169.984L136.139 169.296L135.122 168.222L134.505 169.567L135.413 169.984ZM124.918 195.712L123.973 195.383L123.971 195.39L124.918 195.712ZM118.646 218.368L118.415 219.341L119.414 219.578L119.624 218.573L118.646 218.368ZM110.71 214.272L111.401 213.55L111.393 213.542L111.385 213.535L110.71 214.272ZM105.077 207.104L104.193 206.638L103.933 207.131L104.216 207.611L105.077 207.104ZM108.15 200.704L109.061 201.116L108.15 200.704ZM112.502 190.976L113.415 191.382L113.419 191.375L112.502 190.976ZM118.39 177.024L117.468 176.635L117.465 176.643L118.39 177.024ZM126.454 157.952L127.374 158.342L127.379 158.332L126.454 157.952ZM132.726 142.336L133.666 142.675L133.67 142.663L132.726 142.336ZM134.773 135.808L133.821 135.503L133.815 135.521L133.811 135.538L134.773 135.808ZM136.822 128.768L137.788 129.026L138.259 127.26L136.517 127.815L136.822 128.768ZM125.686 133.248L125.238 132.354L125.229 132.358L125.686 133.248ZM117.366 138.624L116.811 139.456L117.437 139.873L118.011 139.387L117.366 138.624ZM114.934 136.32L114.134 136.92L114.149 136.94L114.165 136.96L114.934 136.32ZM112.757 132.992L111.875 133.463L111.882 133.475L111.889 133.488L112.757 132.992ZM110.965 129.152L111.894 128.781L110.965 129.152ZM110.07 125.696L109.502 124.873L109.025 125.202L109.073 125.779L110.07 125.696ZM119.285 120.96L119.653 121.89L119.285 120.96ZM131.062 117.248L131.299 118.219L131.309 118.217L131.318 118.215L131.062 117.248ZM143.99 114.688L143.859 113.697L143.856 113.697L143.99 114.688ZM170.102 115.712L169.791 116.663L169.801 116.666L169.81 116.669L170.102 115.712ZM180.086 120.832L180.716 120.056L180.086 120.832ZM155.766 124.416L155.617 123.427L154.06 123.661L154.933 124.971L155.766 124.416ZM157.302 126.72L158.094 127.33L158.531 126.762L158.134 126.165L157.302 126.72ZM154.102 131.712L154.968 132.212L154.102 131.712ZM149.878 139.776L150.772 140.223L150.777 140.213L149.878 139.776ZM144.758 150.144L143.859 149.705L143.855 149.713L143.851 149.721L144.758 150.144ZM138.997 162.304L138.096 161.871L137.408 163.304H138.997V162.304ZM157.174 160.512L157.387 161.489L157.394 161.487L157.402 161.486L157.174 160.512ZM171.126 155.392L171.611 156.266L171.618 156.263L171.126 155.392ZM180.214 147.712L179.419 147.105L179.413 147.112L179.408 147.12L180.214 147.712ZM179.062 127.744L178.387 128.482L178.393 128.487L178.398 128.493L179.062 127.744ZM187.534 139.008C187.534 143.523 186.386 147.835 184.077 151.959L185.822 152.937C188.291 148.527 189.534 143.88 189.534 139.008H187.534ZM184.07 151.973C181.832 156.116 178.763 159.77 174.849 162.934L176.106 164.49C180.213 161.169 183.459 157.314 185.829 152.923L184.07 151.973ZM174.851 162.933C171.025 166.01 166.478 168.475 161.196 170.32L161.855 172.208C167.325 170.298 172.079 167.729 176.104 164.491L174.851 162.933ZM161.191 170.322C156.015 172.158 150.496 173.08 144.63 173.08V175.08C150.709 175.08 156.455 174.124 161.86 172.206L161.191 170.322ZM144.63 173.08C142.561 173.08 140.996 172.83 139.881 172.384L139.138 174.24C140.583 174.818 142.431 175.08 144.63 175.08V173.08ZM139.957 172.418C138.913 171.896 137.642 170.882 136.139 169.296L134.688 170.672C136.257 172.329 137.717 173.534 139.062 174.206L139.957 172.418ZM134.505 169.567C130.228 178.891 126.716 187.497 123.973 195.383L125.862 196.041C128.58 188.226 132.066 179.68 136.322 170.401L134.505 169.567ZM123.971 195.39C121.314 203.19 119.212 210.781 117.667 218.163L119.624 218.573C121.151 211.278 123.231 203.765 125.864 196.034L123.971 195.39ZM118.876 217.395C115.776 216.661 113.3 215.369 111.401 213.55L110.018 214.994C112.215 217.1 115.03 218.539 118.415 219.341L118.876 217.395ZM111.385 213.535C109.424 211.737 107.606 209.43 105.939 206.597L104.216 207.611C105.962 210.58 107.899 213.052 110.034 215.009L111.385 213.535ZM105.962 207.57C106.829 205.923 107.862 203.77 109.061 201.116L107.238 200.292C106.048 202.929 105.033 205.042 104.193 206.638L105.962 207.57ZM109.061 201.116C110.257 198.468 111.708 195.223 113.415 191.382L111.588 190.57C109.882 194.409 108.432 197.649 107.238 200.292L109.061 201.116ZM113.419 191.375C115.128 187.442 117.094 182.785 119.314 177.405L117.465 176.643C115.248 182.015 113.288 186.659 111.584 190.577L113.419 191.375ZM119.311 177.413C121.615 171.952 124.302 165.595 127.374 158.342L125.533 157.562C122.461 164.816 119.772 171.173 117.468 176.635L119.311 177.413ZM127.379 158.332C128.744 155.004 129.938 152.104 130.962 149.63L129.113 148.866C128.089 151.341 126.894 154.244 125.528 157.572L127.379 158.332ZM130.962 149.63C131.99 147.144 132.892 144.825 133.666 142.675L131.785 141.997C131.023 144.114 130.133 146.403 129.113 148.866L130.962 149.63ZM133.67 142.663C134.445 140.427 135.133 138.231 135.736 136.078L133.811 135.538C133.219 137.651 132.542 139.808 131.781 142.009L133.67 142.663ZM135.726 136.113C136.414 133.961 137.102 131.599 137.788 129.026L135.855 128.51C135.176 131.057 134.498 133.388 133.821 135.503L135.726 136.113ZM136.517 127.815C132.463 129.109 128.702 130.622 125.238 132.354L126.133 134.142C129.495 132.461 133.159 130.987 137.126 129.721L136.517 127.815ZM125.229 132.358C121.852 134.09 119.01 135.922 116.72 137.861L118.011 139.387C120.158 137.571 122.863 135.819 126.142 134.138L125.229 132.358ZM117.92 137.792C117.259 137.351 116.518 136.66 115.702 135.68L114.165 136.96C115.055 138.028 115.936 138.873 116.811 139.456L117.92 137.792ZM115.734 135.72C114.992 134.732 114.289 133.657 113.626 132.496L111.889 133.488C112.591 134.716 113.339 135.86 114.134 136.92L115.734 135.72ZM113.64 132.521C112.973 131.272 112.392 130.025 111.894 128.781L110.037 129.523C110.563 130.839 111.176 132.152 111.875 133.463L113.64 132.521ZM111.894 128.781C111.407 127.563 111.141 126.511 111.066 125.613L109.073 125.779C109.169 126.929 109.5 128.181 110.037 129.523L111.894 128.781ZM110.637 126.519C113.034 124.867 116.034 123.321 119.653 121.89L118.918 120.03C115.199 121.5 112.055 123.112 109.502 124.873L110.637 126.519ZM119.653 121.89C123.277 120.457 127.158 119.233 131.299 118.219L130.824 116.277C126.602 117.311 122.633 118.561 118.918 120.03L119.653 121.89ZM131.318 118.215C135.457 117.116 139.726 116.271 144.123 115.679L143.856 113.697C139.379 114.3 135.028 115.161 130.805 116.281L131.318 118.215ZM144.12 115.679C148.605 115.087 152.87 114.792 156.918 114.792V112.792C152.773 112.792 148.42 113.094 143.859 113.697L144.12 115.679ZM156.918 114.792C161.694 114.792 165.982 115.421 169.791 116.663L170.412 114.761C166.37 113.443 161.869 112.792 156.918 112.792V114.792ZM169.81 116.669C173.632 117.832 176.84 119.483 179.455 121.608L180.716 120.056C177.87 117.743 174.421 115.981 170.393 114.755L169.81 116.669ZM179.455 121.608C182.074 123.736 184.069 126.263 185.453 129.195L187.262 128.341C185.745 125.129 183.559 122.365 180.716 120.056L179.455 121.608ZM185.453 129.195C186.835 132.12 187.534 135.385 187.534 139.008H189.534C189.534 135.121 188.782 131.56 187.262 128.341L185.453 129.195ZM165.75 122.648C162.454 122.648 159.076 122.908 155.617 123.427L155.914 125.405C159.281 124.9 162.56 124.648 165.75 124.648V122.648ZM154.933 124.971L156.469 127.275L158.134 126.165L156.598 123.861L154.933 124.971ZM156.509 126.11C155.615 127.272 154.522 128.981 153.235 131.212L154.968 132.212C156.241 130.005 157.281 128.386 158.094 127.33L156.509 126.11ZM153.235 131.212C151.94 133.457 150.521 136.167 148.978 139.339L150.777 140.213C152.306 137.07 153.703 134.404 154.968 132.212L153.235 131.212ZM148.983 139.329C147.445 142.404 145.737 145.863 143.859 149.705L145.656 150.583C147.532 146.745 149.238 143.292 150.772 140.223L148.983 139.329ZM143.851 149.721C142.061 153.557 140.143 157.608 138.096 161.871L139.899 162.737C141.948 158.467 143.87 154.411 145.664 150.567L143.851 149.721ZM138.997 163.304C145.712 163.304 151.844 162.701 157.387 161.489L156.96 159.535C151.58 160.712 145.595 161.304 138.997 161.304V163.304ZM157.402 161.486C162.929 160.19 167.672 158.455 171.611 156.266L170.64 154.518C166.899 156.596 162.34 158.274 156.945 159.538L157.402 161.486ZM171.618 156.263C175.636 153.991 178.784 151.344 181.019 148.304L179.408 147.12C177.377 149.882 174.466 152.355 170.633 154.521L171.618 156.263ZM181.008 148.319C183.346 145.262 184.542 141.937 184.542 138.368H182.542C182.542 141.455 181.518 144.36 179.419 147.105L181.008 148.319ZM184.542 138.368C184.542 133.68 182.951 129.853 179.725 126.995L178.398 128.493C181.145 130.926 182.542 134.181 182.542 138.368H184.542ZM179.736 127.006C176.497 124.044 171.775 122.648 165.75 122.648V124.648C171.5 124.648 175.653 125.983 178.387 128.482L179.736 127.006Z" fill="black"/>
<path d="M114.044 152.704C116.177 156.373 117.244 159.915 117.244 163.328C117.244 164.096 117.159 164.779 116.988 165.376C116.903 166.059 116.775 166.741 116.604 167.424C115.153 167.253 113.617 167.125 111.996 167.04C110.46 166.955 108.839 166.912 107.132 166.912C105.084 166.912 102.993 166.955 100.86 167.04C98.812 167.211 96.508 167.424 93.948 167.68C91.388 167.936 88.5293 168.277 85.372 168.704C82.2147 169.131 78.5453 169.685 74.364 170.368C72.4013 169.685 70.4387 168.32 68.476 166.272C66.5133 164.309 64.6787 161.92 62.972 159.104C63.8253 157.227 64.892 154.923 66.172 152.192C67.452 149.376 68.9453 146.005 70.652 142.08C72.3587 138.069 74.236 133.419 76.284 128.128C78.4173 122.752 80.6787 116.565 83.068 109.568C84.604 104.96 85.9267 100.907 87.036 97.408C88.1453 93.9093 89.1267 90.5387 89.98 87.296C90.9187 83.968 91.8147 80.512 92.668 76.928C93.5213 73.344 94.46 69.2053 95.484 64.512C98.8973 65.1947 101.841 66.4747 104.316 68.352C106.876 70.144 109.308 72.7467 111.612 76.16C110.929 77.2693 110.033 79.0613 108.924 81.536C107.815 84.0107 106.492 87.04 104.956 90.624C103.505 94.1227 101.884 98.1333 100.092 102.656C98.3 107.093 96.4227 111.872 94.46 116.992C92.5827 122.027 90.748 126.763 88.956 131.2C87.164 135.637 85.5427 139.648 84.092 143.232C82.7267 146.816 81.6173 149.888 80.764 152.448C79.9107 155.008 79.484 156.928 79.484 158.208C80.8493 158.123 82.0867 158.037 83.196 157.952C84.3053 157.867 85.4573 157.739 86.652 157.568C87.8467 157.312 89.1267 157.056 90.492 156.8C91.9427 156.459 93.6493 156.032 95.612 155.52C97.3187 155.093 98.8973 154.752 100.348 154.496C101.799 154.155 103.207 153.899 104.572 153.728C106.023 153.472 107.473 153.301 108.924 153.216C110.46 153.045 112.167 152.875 114.044 152.704Z" fill="#FFE169"/>
<path d="M114.044 152.704L114.909 152.201L114.588 151.65L113.953 151.708L114.044 152.704ZM116.988 165.376L116.026 165.101L116.005 165.175L115.996 165.252L116.988 165.376ZM116.604 167.424L116.487 168.417L117.361 168.52L117.574 167.667L116.604 167.424ZM111.996 167.04L111.941 168.038L111.943 168.039L111.996 167.04ZM100.86 167.04L100.82 166.041L100.798 166.042L100.777 166.043L100.86 167.04ZM74.364 170.368L74.0355 171.312L74.2749 171.396L74.5251 171.355L74.364 170.368ZM68.476 166.272L69.198 165.58L69.1906 165.572L69.1831 165.565L68.476 166.272ZM62.972 159.104L62.0616 158.69L61.8432 159.171L62.1168 159.622L62.972 159.104ZM66.172 152.192L67.0775 152.616L67.0824 152.606L66.172 152.192ZM70.652 142.08L71.5691 142.479L71.5722 142.472L70.652 142.08ZM76.284 128.128L75.3545 127.759L75.3514 127.767L76.284 128.128ZM83.068 109.568L84.0144 109.891L84.0167 109.884L83.068 109.568ZM87.036 97.408L87.9892 97.7102L87.036 97.408ZM89.98 87.296L89.0176 87.0245L89.0152 87.033L89.0129 87.0415L89.98 87.296ZM92.668 76.928L93.6408 77.1596L92.668 76.928ZM95.484 64.512L95.6801 63.5314L94.7165 63.3387L94.507 64.2988L95.484 64.512ZM104.316 68.352L103.712 69.1487L103.727 69.1603L103.743 69.1712L104.316 68.352ZM111.612 76.16L112.464 76.6841L112.802 76.135L112.441 75.6005L111.612 76.16ZM108.924 81.536L109.837 81.9451V81.945L108.924 81.536ZM104.956 90.624L104.037 90.23L104.032 90.241L104.956 90.624ZM100.092 102.656L101.019 103.03L101.022 103.024L100.092 102.656ZM94.46 116.992L93.5262 116.634L93.523 116.643L94.46 116.992ZM84.092 143.232L83.1651 142.857L83.1612 142.866L83.1575 142.876L84.092 143.232ZM80.764 152.448L81.7127 152.764L80.764 152.448ZM79.484 158.208H78.484V159.272L79.5464 159.206L79.484 158.208ZM86.652 157.568L86.7934 158.558L86.8277 158.553L86.8615 158.546L86.652 157.568ZM90.492 156.8L90.6763 157.783L90.6988 157.779L90.721 157.773L90.492 156.8ZM95.612 155.52L95.3695 154.55L95.3596 154.552L95.612 155.52ZM100.348 154.496L100.522 155.481L100.55 155.476L100.577 155.469L100.348 154.496ZM104.572 153.728L104.696 154.72L104.721 154.717L104.746 154.713L104.572 153.728ZM108.924 153.216L108.983 154.214L109.009 154.213L109.034 154.21L108.924 153.216ZM113.179 153.207C115.245 156.76 116.244 160.129 116.244 163.328H118.244C118.244 159.7 117.109 155.987 114.909 152.201L113.179 153.207ZM116.244 163.328C116.244 164.024 116.166 164.611 116.026 165.101L117.95 165.651C118.151 164.946 118.244 164.168 118.244 163.328H116.244ZM115.996 165.252C115.915 165.894 115.795 166.537 115.634 167.181L117.574 167.667C117.754 166.946 117.89 166.224 117.98 165.5L115.996 165.252ZM116.721 166.431C115.247 166.257 113.689 166.128 112.049 166.041L111.943 168.039C113.546 168.123 115.06 168.249 116.487 168.417L116.721 166.431ZM112.051 166.042C110.495 165.955 108.855 165.912 107.132 165.912V167.912C108.822 167.912 110.425 167.954 111.941 168.038L112.051 166.042ZM107.132 165.912C105.07 165.912 102.966 165.955 100.82 166.041L100.9 168.039C103.021 167.954 105.098 167.912 107.132 167.912V165.912ZM100.777 166.043C98.7223 166.215 96.4127 166.429 93.8485 166.685L94.0475 168.675C96.6033 168.419 98.9017 168.207 100.943 168.037L100.777 166.043ZM93.8485 166.685C91.2747 166.942 88.4043 167.285 85.2381 167.713L85.5059 169.695C88.6544 169.27 91.5013 168.93 94.0475 168.675L93.8485 166.685ZM85.2381 167.713C82.0693 168.141 78.3905 168.697 74.2029 169.381L74.5251 171.355C78.7002 170.673 82.3601 170.12 85.5059 169.695L85.2381 167.713ZM74.6925 169.424C72.9235 168.808 71.0892 167.554 69.198 165.58L67.754 166.964C69.7881 169.086 71.8792 170.562 74.0355 171.312L74.6925 169.424ZM69.1831 165.565C67.2866 163.668 65.4997 161.345 63.8272 158.586L62.1168 159.622C63.8576 162.495 65.7401 164.95 67.7689 166.979L69.1831 165.565ZM63.8824 159.518C64.7335 157.645 65.7984 155.345 67.0775 152.616L65.2665 151.768C63.9856 154.5 62.9171 156.808 62.0616 158.69L63.8824 159.518ZM67.0824 152.606C68.3653 149.783 69.861 146.407 71.5691 142.479L69.7349 141.681C68.0297 145.603 66.5387 148.969 65.2616 151.778L67.0824 152.606ZM71.5722 142.472C73.2842 138.448 75.1657 133.787 77.2166 128.489L75.3514 127.767C73.3063 133.05 71.4332 137.69 69.7318 141.688L71.5722 142.472ZM77.2135 128.497C79.3542 123.102 81.6211 116.9 84.0144 109.891L82.1217 109.245C79.7362 116.231 77.4805 122.402 75.3545 127.759L77.2135 128.497ZM84.0167 109.884C85.5538 105.273 86.878 101.215 87.9892 97.7102L86.0828 97.1058C84.9753 100.599 83.6542 104.647 82.1193 109.252L84.0167 109.884ZM87.9892 97.7102C89.1031 94.1972 90.0891 90.8106 90.9471 87.5505L89.0129 87.0415C88.1642 90.2667 87.1876 93.6214 86.0828 97.1058L87.9892 97.7102ZM90.9425 87.5675C91.8851 84.2254 92.7845 80.7561 93.6408 77.1596L91.6952 76.6964C90.8448 80.2679 89.9523 83.7106 89.0176 87.0245L90.9425 87.5675ZM93.6408 77.1596C94.496 73.568 95.4361 69.4229 96.461 64.7252L94.507 64.2988C93.484 68.9877 92.5467 73.12 91.6952 76.6964L93.6408 77.1596ZM95.2879 65.4926C98.571 66.1492 101.371 67.3732 103.712 69.1487L104.92 67.5553C102.311 65.5761 99.2237 64.2401 95.6801 63.5314L95.2879 65.4926ZM103.743 69.1712C106.176 70.8746 108.527 73.3771 110.783 76.7195L112.441 75.6005C110.089 72.1162 107.576 69.4134 104.889 67.5328L103.743 69.1712ZM110.76 75.6359C110.042 76.8037 109.124 78.6455 108.011 81.1269L109.837 81.945C110.943 79.4772 111.817 77.735 112.464 76.6841L110.76 75.6359ZM108.011 81.1269C106.899 83.6083 105.574 86.643 104.037 90.2301L105.875 91.0179C107.41 87.437 108.73 84.413 109.837 81.9451L108.011 81.1269ZM104.032 90.241C102.579 93.7457 100.956 97.7614 99.1623 102.288L101.022 103.024C102.812 98.5053 104.432 94.4997 105.88 91.007L104.032 90.241ZM99.1648 102.282C97.3703 106.725 95.4907 111.509 93.5263 116.634L95.3937 117.35C97.3546 112.235 99.2298 107.462 101.019 103.03L99.1648 102.282ZM93.523 116.643C91.6484 121.67 89.817 126.397 88.0288 130.826L89.8832 131.574C91.679 127.128 93.5169 122.383 95.397 117.341L93.523 116.643ZM88.0288 130.826C86.2368 135.263 84.6156 139.273 83.1651 142.857L85.019 143.607C86.4697 140.023 88.0912 136.012 89.8832 131.574L88.0288 130.826ZM83.1575 142.876C81.7891 146.468 80.6745 149.554 79.8153 152.132L81.7127 152.764C82.5602 150.222 83.6643 147.164 85.0265 143.588L83.1575 142.876ZM79.8153 152.132C78.9571 154.707 78.484 156.756 78.484 158.208H80.484C80.484 157.1 80.8643 155.309 81.7127 152.764L79.8153 152.132ZM79.5464 159.206C80.9155 159.12 82.1577 159.035 83.2727 158.949L83.1193 156.955C82.0157 157.04 80.7832 157.125 79.4216 157.21L79.5464 159.206ZM83.2727 158.949C84.4054 158.862 85.579 158.731 86.7934 158.558L86.5106 156.578C85.3356 156.746 84.2053 156.871 83.1193 156.955L83.2727 158.949ZM86.8615 158.546C88.0468 158.292 89.3183 158.038 90.6763 157.783L90.3077 155.817C88.9351 156.074 87.6466 156.332 86.4425 156.59L86.8615 158.546ZM90.721 157.773C92.1817 157.43 93.8965 157.001 95.8644 156.488L95.3596 154.552C93.4021 155.063 91.7036 155.488 90.263 155.827L90.721 157.773ZM95.8545 156.49C97.5427 156.068 99.0981 155.732 100.522 155.481L100.174 153.511C98.6966 153.772 97.0947 154.119 95.3695 154.55L95.8545 156.49ZM100.577 155.469C101.996 155.136 103.369 154.886 104.696 154.72L104.448 152.736C103.045 152.911 101.601 153.174 100.119 153.523L100.577 155.469ZM104.746 154.713C106.159 154.463 107.571 154.297 108.983 154.214L108.865 152.218C107.376 152.305 105.886 152.481 104.398 152.743L104.746 154.713ZM109.034 154.21C110.563 154.04 112.262 153.87 114.135 153.7L113.953 151.708C112.071 151.879 110.357 152.051 108.814 152.222L109.034 154.21Z" fill="black"/>
<path d="M180.081 200.704C180.081 197.632 180.55 193.664 181.489 188.8C182.513 183.851 183.793 178.56 185.329 172.928C186.95 167.211 188.785 161.408 190.833 155.52C192.881 149.547 194.971 143.957 197.104 138.752C199.238 133.547 201.329 128.981 203.377 125.056C205.425 121.131 207.259 118.315 208.881 116.608C209.734 116.693 210.843 117.035 212.209 117.632C213.659 118.144 215.11 118.784 216.561 119.552C218.011 120.32 219.334 121.173 220.529 122.112C221.723 122.965 222.491 123.776 222.833 124.544C220.358 126.763 217.883 130.133 215.409 134.656C213.019 139.093 210.673 144.171 208.369 149.888C206.15 155.605 204.059 161.664 202.097 168.064C200.134 174.379 198.427 180.523 196.977 186.496C195.526 192.469 194.374 198.016 193.521 203.136C192.753 208.256 192.369 212.395 192.369 215.552C192.369 217.003 192.497 217.899 192.753 218.24C190.875 218.155 189.51 217.813 188.657 217.216C187.803 216.704 187.121 216.107 186.609 215.424C186.182 214.827 185.755 214.187 185.329 213.504C184.987 212.907 184.433 212.437 183.665 212.096C183.067 211.84 182.555 211.243 182.128 210.304C181.702 209.365 181.318 208.341 180.977 207.232C180.721 206.037 180.507 204.843 180.337 203.648C180.166 202.453 180.081 201.472 180.081 200.704Z" fill="#FFE169"/>
<path d="M181.489 188.8L180.509 188.597L180.507 188.611L181.489 188.8ZM185.328 172.928L184.366 172.655L184.364 172.665L185.328 172.928ZM190.833 155.52L191.777 155.849L191.778 155.844L190.833 155.52ZM197.104 138.752L198.03 139.131L197.104 138.752ZM203.377 125.056L204.263 125.519L203.377 125.056ZM208.881 116.608L208.98 115.613L208.493 115.564L208.156 115.919L208.881 116.608ZM212.209 117.632L211.808 118.548L211.841 118.563L211.876 118.575L212.209 117.632ZM216.561 119.552L216.093 120.436L216.561 119.552ZM220.529 122.112L219.911 122.898L219.929 122.912L219.947 122.926L220.529 122.112ZM222.833 124.544L223.5 125.289L224.042 124.803L223.746 124.138L222.833 124.544ZM215.409 134.656L214.531 134.176L214.528 134.182L215.409 134.656ZM208.368 149.888L207.441 149.514L207.436 149.526L208.368 149.888ZM202.096 168.064L203.051 168.361L203.053 168.357L202.096 168.064ZM196.977 186.496L197.948 186.732L196.977 186.496ZM193.521 203.136L192.534 202.972L192.533 202.98L192.532 202.988L193.521 203.136ZM192.753 218.24L192.707 219.239L194.824 219.335L193.552 217.64L192.753 218.24ZM188.657 217.216L189.23 216.397L189.201 216.377L189.171 216.359L188.657 217.216ZM186.609 215.424L185.795 216.005L185.802 216.015L185.809 216.024L186.609 215.424ZM185.328 213.504L184.46 214L184.47 214.017L184.48 214.034L185.328 213.504ZM183.665 212.096L184.071 211.182L184.058 211.177L183.665 212.096ZM182.129 210.304L181.218 210.718L182.129 210.304ZM180.977 207.232L179.999 207.442L180.008 207.484L180.021 207.526L180.977 207.232ZM180.337 203.648L179.347 203.789V203.789L180.337 203.648ZM181.081 200.704C181.081 197.722 181.537 193.824 182.47 188.989L180.507 188.611C179.562 193.504 179.081 197.542 179.081 200.704H181.081ZM182.468 189.003C183.487 184.076 184.762 178.806 186.293 173.191L184.364 172.665C182.823 178.314 181.538 183.625 180.509 188.597L182.468 189.003ZM186.291 173.201C187.906 167.503 189.735 161.719 191.777 155.849L189.888 155.191C187.834 161.097 185.993 166.918 184.366 172.655L186.291 173.201ZM191.778 155.844C193.821 149.887 195.905 144.316 198.03 139.131L196.179 138.373C194.038 143.598 191.94 149.206 189.887 155.196L191.778 155.844ZM198.03 139.131C200.154 133.947 202.232 129.411 204.263 125.519L202.49 124.593C200.425 128.552 198.321 133.146 196.179 138.373L198.03 139.131ZM204.263 125.519C206.299 121.617 208.082 118.9 209.605 117.297L208.156 115.919C206.436 117.729 204.55 120.645 202.49 124.593L204.263 125.519ZM208.781 117.603C209.481 117.673 210.478 117.967 211.808 118.548L212.609 116.716C211.208 116.103 209.987 115.714 208.98 115.613L208.781 117.603ZM211.876 118.575C213.277 119.07 214.683 119.689 216.093 120.436L217.028 118.668C215.537 117.879 214.041 117.218 212.541 116.689L211.876 118.575ZM216.093 120.436C217.495 121.178 218.767 121.999 219.911 122.898L221.146 121.326C219.901 120.347 218.528 119.462 217.028 118.668L216.093 120.436ZM219.947 122.926C221.091 123.743 221.686 124.426 221.919 124.95L223.746 124.138C223.297 123.126 222.355 122.188 221.11 121.298L219.947 122.926ZM222.165 123.799C219.573 126.124 217.034 129.602 214.531 134.176L216.286 135.136C218.733 130.664 221.143 127.402 223.5 125.289L222.165 123.799ZM214.528 134.182C212.118 138.658 209.756 143.77 207.441 149.514L209.296 150.262C211.589 144.571 213.921 139.529 216.289 135.13L214.528 134.182ZM207.436 149.526C205.208 155.268 203.11 161.35 201.14 167.771L203.053 168.357C205.009 161.978 207.092 155.943 209.301 150.25L207.436 149.526ZM201.142 167.767C199.173 174.1 197.461 180.265 196.005 186.26L197.948 186.732C199.394 180.781 201.095 174.657 203.051 168.361L201.142 167.767ZM196.005 186.26C194.549 192.253 193.392 197.824 192.534 202.972L194.507 203.3C195.356 198.208 196.502 192.686 197.948 186.732L196.005 186.26ZM192.532 202.988C191.76 208.13 191.368 212.324 191.368 215.552H193.368C193.368 212.466 193.745 208.382 194.509 203.284L192.532 202.988ZM191.368 215.552C191.368 216.3 191.401 216.939 191.475 217.453C191.541 217.921 191.662 218.452 191.952 218.84L193.552 217.64C193.587 217.687 193.516 217.599 193.454 217.171C193.4 216.789 193.368 216.255 193.368 215.552H191.368ZM192.798 217.241C190.978 217.158 189.847 216.829 189.23 216.397L188.083 218.035C189.173 218.798 190.772 219.151 192.707 219.239L192.798 217.241ZM189.171 216.359C188.41 215.902 187.831 215.387 187.409 214.824L185.809 216.024C186.41 216.826 187.196 217.506 188.142 218.073L189.171 216.359ZM187.422 214.843C187.009 214.264 186.593 213.641 186.176 212.974L184.48 214.034C184.917 214.732 185.355 215.39 185.795 216.005L187.422 214.843ZM186.197 213.008C185.728 212.188 184.989 211.59 184.071 211.182L183.258 213.01C183.876 213.284 184.246 213.626 184.46 214L186.197 213.008ZM184.058 211.177C183.792 211.063 183.42 210.729 183.039 209.89L181.218 210.718C181.69 211.757 182.342 212.617 183.271 213.015L184.058 211.177ZM183.039 209.89C182.632 208.995 182.263 208.011 181.932 206.938L180.021 207.526C180.373 208.671 180.772 209.736 181.218 210.718L183.039 209.89ZM181.954 207.022C181.703 205.85 181.494 204.678 181.326 203.507L179.347 203.789C179.521 205.007 179.738 206.225 179.999 207.442L181.954 207.022ZM181.326 203.507C181.159 202.336 181.081 201.406 181.081 200.704H179.081C179.081 201.538 179.173 202.571 179.347 203.789L181.326 203.507Z" fill="black"/>
</svg>
